<?xml version="1.0" encoding="UTF-8" standalone="no"?><!DOCTYPE svg PUBLIC "-//W3C//DTD SVG 1.1//EN" "http://www.w3.org/Graphics/SVG/1.1/DTD/svg11.dtd"><svg width="100%" height="100%" viewBox="0 0 1430 495" version="1.1" xmlns="http://www.w3.org/2000/svg" xmlns:xlink="http://www.w3.org/1999/xlink" xml:space="preserve" xmlns:serif="http://www.serif.com/" style="fill-rule:evenodd;clip-rule:evenodd;stroke-linejoin:round;stroke-miterlimit:1.5;"><g id="async-request-response" serif:id="async request response"><path d="M226.025,207.541l-0.632,-1.36l345.576,-160.578l-2.845,-6.122l23.565,-2.679l-17.244,16.283l-2.844,-6.122l-345.576,160.578Z"/><path d="M859.221,46.972l2.845,-6.122l-23.566,-2.68l17.245,16.283l2.844,-6.121l344.094,159.889l0.632,-1.36l-344.094,-159.889Z"/><path d="M570.548,413.737l2.789,-6.147l17.391,16.126l-23.588,-2.466l2.788,-6.147l-340.056,-154.274l0.62,-1.366l340.056,154.274Z"/><path d="M1207.93,261.512l-0.619,-1.366l-351.788,159.596l-2.789,-6.147l-17.391,16.126l23.589,-2.466l-2.789,-6.147l351.787,-159.596Z"/><g id="Request-Channel" serif:id="Request Channel"><text x="620.275px" y="89.458px" style="font-family:'ArialMT', 'Arial', sans-serif;font-size:25px;fill:#383838;">Request channel</text><g id="channel"><path d="M602.827,59.767c-0.328,0.154 -0.662,0.233 -1,0.233c-4.416,0 -8,-13.443 -8,-30c-0,-16.557 3.584,-30 8,-30c0.338,0 0.672,0.079 1,0.233l-0,-0.233l220.013,0l0,60l-220.013,0l-0,-0.233Z" style="fill:#ffc554;"/><path d="M602.827,55.833c-0,0 215.846,0 215.846,0c0,0 0,-51.666 0,-51.666l-215.566,-0c-0.176,0.147 -0.28,0.232 -0.28,0.232c-0.124,0 -0.248,-0.005 -0.371,-0.018c-0.385,0.623 -1.051,1.774 -1.437,2.835c-1.869,5.138 -3.026,13.437 -3.026,22.784c0,9.347 1.157,17.646 3.026,22.784c0.564,1.552 1.731,3.299 1.731,3.299c-0,-0 -0.616,-0.25 -0.923,-0.25c-0.26,0 -0.519,0.044 -0.769,0.162c-0.94,0.44 -1.649,1.196 -2.044,2.093c-3.03,-4.272 -5.187,-15.243 -5.187,-28.088c-0,-16.557 3.584,-30 8,-30c0.338,0 0.672,0.079 1,0.233l-0,-0.233l220.013,0l0,60l-220.013,0l-0,-4.167Z" style="fill:#d99000;"/><ellipse cx="822.84" cy="30" rx="12.5" ry="30" style="fill:#ffc554;"/><path d="M822.84,0c6.899,0 12.5,13.443 12.5,30c0,16.557 -5.601,30 -12.5,30c-6.899,0 -12.5,-13.443 -12.5,-30c0,-16.557 5.601,-30 12.5,-30Zm0,4.167c0.483,-0 0.913,0.27 1.347,0.618c0.885,0.707 1.673,1.767 2.411,3.065c2.836,4.992 4.575,13.069 4.575,22.15c0,9.081 -1.739,17.158 -4.575,22.15c-0.738,1.298 -1.526,2.358 -2.411,3.065c-0.434,0.348 -0.864,0.618 -1.347,0.618c-0.483,0 -0.913,-0.27 -1.347,-0.618c-0.885,-0.707 -1.673,-1.767 -2.411,-3.065c-2.836,-4.992 -4.575,-13.069 -4.575,-22.15c-0,-9.081 1.739,-17.158 4.575,-22.15c0.738,-1.298 1.526,-2.358 2.411,-3.065c0.434,-0.348 0.864,-0.618 1.347,-0.618Z" style="fill:#d99000;"/></g></g><g id="Request-Channel1" serif:id="Request Channel"><text x="610.546px" y="489.458px" style="font-family:'ArialMT', 'Arial', sans-serif;font-size:25px;fill:#383838;">Response channel</text><g id="channel1" serif:id="channel"><path d="M602.827,459.767c-0.328,0.154 -0.662,0.233 -1,0.233c-4.416,-0 -8,-13.443 -8,-30c-0,-16.557 3.584,-30 8,-30c0.338,0 0.672,0.079 1,0.233l-0,-0.233l220.013,0l0,60l-220.013,0l-0,-0.233Z" style="fill:#ffc554;"/><path d="M602.827,455.833c-0,0 215.846,0 215.846,0c0,0 0,-51.666 0,-51.666l-215.566,-0c-0.176,0.147 -0.28,0.232 -0.28,0.232c-0.124,0 -0.248,-0.005 -0.371,-0.018c-0.385,0.623 -1.051,1.774 -1.437,2.835c-1.869,5.138 -3.026,13.437 -3.026,22.784c0,9.347 1.157,17.646 3.026,22.784c0.564,1.552 1.731,3.299 1.731,3.299c-0,-0 -0.616,-0.25 -0.923,-0.25c-0.26,0 -0.519,0.044 -0.769,0.162c-0.94,0.44 -1.649,1.196 -2.044,2.093c-3.03,-4.272 -5.187,-15.243 -5.187,-28.088c-0,-16.557 3.584,-30 8,-30c0.338,0 0.672,0.079 1,0.233l-0,-0.233l220.013,0l0,60l-220.013,0l-0,-4.167Z" style="fill:#d99000;"/><ellipse cx="822.84" cy="430" rx="12.5" ry="30" style="fill:#ffc554;"/><path d="M822.84,400c6.899,0 12.5,13.443 12.5,30c0,16.557 -5.601,30 -12.5,30c-6.899,-0 -12.5,-13.443 -12.5,-30c0,-16.557 5.601,-30 12.5,-30Zm0,4.167c0.483,-0 0.913,0.27 1.347,0.618c0.885,0.707 1.673,1.767 2.411,3.065c2.836,4.992 4.575,13.069 4.575,22.15c0,9.081 -1.739,17.158 -4.575,22.15c-0.738,1.298 -1.526,2.358 -2.411,3.065c-0.434,0.348 -0.864,0.618 -1.347,0.618c-0.483,0 -0.913,-0.27 -1.347,-0.618c-0.885,-0.707 -1.673,-1.767 -2.411,-3.065c-2.836,-4.992 -4.575,-13.069 -4.575,-22.15c-0,-9.081 1.739,-17.158 4.575,-22.15c0.738,-1.298 1.526,-2.358 2.411,-3.065c0.434,-0.348 0.864,-0.618 1.347,-0.618Z" style="fill:#d99000;"/></g></g><g id="Client-Service" serif:id="Client Service"><g id="Client"><rect x="2.083" y="134.713" width="225" height="225" style="fill:#ededed;stroke:#bebebe;stroke-width:4.17px;"/><text x="63.317px" y="261.333px" style="font-family:'ArialMT', 'Arial', sans-serif;font-size:39.449px;">Client</text></g><g id="Service"><rect x="1202.08" y="134.713" width="225" height="225" style="fill:#bef2f3;stroke:#2ed5d8;stroke-width:4.17px;"/><text x="1248.75px" y="261.333px" style="font-family:'ArialMT', 'Arial', sans-serif;font-size:39.449px;">Service</text></g></g><g transform="matrix(1,0,0,1,-155.339,-10746)"><text x="557.291px" y="10898.3px" style="font-family:'HackNerdFontCompleteM-Regular', 'Hack Nerd Font Mono', monospace;font-size:25px;fill:#383838;">MessageId: msgId</text><text x="557.291px" y="10923.3px" style="font-family:'HackNerdFontCompleteM-Regular', 'Hack Nerd Font Mono', monospace;font-size:25px;fill:#383838;">ReturnAddress: ReplyChannel</text><text x="557.291px" y="10948.3px" style="font-family:'HackNerdFontCompleteM-Regular', 'Hack Nerd Font Mono', monospace;font-size:25px;fill:#383838;">Body: Body</text></g><g transform="matrix(1,0,0,1,347.661,-10449.6)"><text x="557.291px" y="10898.3px" style="font-family:'HackNerdFontCompleteM-Regular', 'Hack Nerd Font Mono', monospace;font-size:25px;fill:#383838;">MessageId: msgId</text><text x="557.291px" y="10923.3px" style="font-family:'HackNerdFontCompleteM-Regular', 'Hack Nerd Font Mono', monospace;font-size:25px;fill:#383838;">Body: Body</text></g><text x="357.167px" y="379.422px" style="font-family:'ArialMT', 'Arial', sans-serif;font-size:25px;fill:#383838;">Reads</text><text x="357.167px" y="89.422px" style="font-family:'ArialMT', 'Arial', sans-serif;font-size:25px;fill:#383838;">Sends</text><text x="1004.17px" y="100.422px" style="font-family:'ArialMT', 'Arial', sans-serif;font-size:25px;fill:#383838;">Reads</text><text x="1004.17px" y="390.422px" style="font-family:'ArialMT', 'Arial', sans-serif;font-size:25px;fill:#383838;">Sends</text></g></svg>