<?xml version="1.0" encoding="UTF-8" standalone="no"?><!DOCTYPE svg PUBLIC "-//W3C//DTD SVG 1.1//EN" "http://www.w3.org/Graphics/SVG/1.1/DTD/svg11.dtd"><svg width="100%" height="100%" viewBox="0 0 2035 324" version="1.1" xmlns="http://www.w3.org/2000/svg" xmlns:xlink="http://www.w3.org/1999/xlink" xml:space="preserve" xmlns:serif="http://www.serif.com/" style="fill-rule:evenodd;clip-rule:evenodd;stroke-linecap:round;stroke-linejoin:round;stroke-miterlimit:1.5;"><g id="Choreogprahy"><path d="M169.723,146.71l0,-1.939l122.185,0l-0,-8.725l29.084,9.695l-29.084,9.694l-0,-8.725l-122.185,0Z"/><path d="M320.992,178.356l-0,1.938l-122.184,0l-0,8.726l-29.085,-9.695l29.085,-9.695l-0,8.726l122.184,-0Z"/><path d="M649.608,146.01l-0,-1.939l288.735,0l-0,-8.725l29.084,9.695l-29.084,9.695l-0,-8.726l-288.735,0Z"/><path d="M967.427,170.558l0,1.939l-274.742,0l0,8.726l-29.084,-9.695l29.084,-9.695l0,8.725l274.742,0Z"/><path d="M1647.35,172.058l-0,1.939l-306.343,0l-0,8.726l-29.085,-9.695l29.085,-9.695l-0,8.725l306.343,0Z"/><path d="M1311.92,141.195l0,-1.939l306.344,-0l-0,-8.726l29.084,9.695l-29.084,9.695l-0,-8.725l-306.344,-0Z"/><g id="Services"><g id="Shipping-Service" serif:id="Shipping Service"><path d="M1854.73,2.125l137.122,79.854l0,159.708l-137.122,79.855l-137.122,-79.855l-0,-159.708l137.122,-79.854Z" style="fill:#51dd4e;stroke:#24ad21;stroke-width:4.25px;"/><text x="1759.1px" y="178.286px" style="font-family:'ArialMT', 'Arial', sans-serif;font-size:45.969px;">Service 2</text><g id="grpcAPI"><rect x="1647.35" y="118.534" width="89.923" height="86.599" style="fill:#bee77b;stroke:#74a91f;stroke-width:4.17px;stroke-linecap:butt;"/><g transform="matrix(0.676555,0,0,0.676555,1047.88,-1246.82)"><text x="901.414px" y="2076.39px" style="font-family:'ArialMT', 'Arial', sans-serif;font-size:37.5px;">REST</text><text x="921.198px" y="2115.11px" style="font-family:'ArialMT', 'Arial', sans-serif;font-size:37.5px;">API</text></g></g></g><g id="User-Service" serif:id="User Service"><path d="M1174.8,2.125l137.122,79.854l0,159.708l-137.122,79.855l-137.122,-79.855l-0,-159.708l137.122,-79.854Z" style="fill:#ff9254;stroke:#f46700;stroke-width:4.17px;"/><text x="1082.18px" y="178.286px" style="font-family:'ArialMT', 'Arial', sans-serif;font-size:45.969px;">Service 1</text><g id="grpcAPI1" serif:id="grpcAPI"><rect x="967.427" y="118.534" width="89.923" height="86.599" style="fill:#bee77b;stroke:#74a91f;stroke-width:4.17px;stroke-linecap:butt;"/><g transform="matrix(0.676555,0,0,0.676555,367.957,-1246.82)"><text x="901.405px" y="2076.39px" style="font-family:'ArialMT', 'Arial', sans-serif;font-size:37.5px;">gRPC</text><text x="921.198px" y="2115.11px" style="font-family:'ArialMT', 'Arial', sans-serif;font-size:37.5px;">API</text></g></g></g></g><g id="Api-Gateway" serif:id="Api Gateway"><g id="API-Gateway" serif:id="API Gateway"><path d="M529.817,10.834l129.645,75.499l-0,151l-129.645,75.5l-129.645,-75.5l0,-151l129.645,-75.499Z" style="fill:#bef2f3;stroke:#2ed5d8;stroke-width:4.25px;"/><g transform="matrix(0.948273,0,0,0.948273,-1179.38,-2001.37)"><text x="1764.52px" y="2273.94px" style="font-family:'ArialMT', 'Arial', sans-serif;font-size:45.833px;">API</text><text x="1711.02px" y="2321.27px" style="font-family:'ArialMT', 'Arial', sans-serif;font-size:45.833px;">Gateway</text></g></g><g id="Rest-API" serif:id="Rest API"><rect x="322.972" y="110.176" width="107.28" height="103.315" style="fill:#bee77b;stroke:#74a91f;stroke-width:4.17px;stroke-linecap:butt;"/><g transform="matrix(0.807145,0,0,0.807145,-392.209,-1518.72)"><text x="901.414px" y="2076.39px" style="font-family:'ArialMT', 'Arial', sans-serif;font-size:37.5px;">REST</text><text x="921.198px" y="2115.11px" style="font-family:'ArialMT', 'Arial', sans-serif;font-size:37.5px;">API</text></g></g></g><g id="Client"><rect x="2.083" y="75.809" width="167.64" height="172.048" style="fill:#ededed;stroke:#bebebe;stroke-width:4.17px;stroke-linecap:butt;"/><text x="31.34px" y="176.86px" style="font-family:'ArialMT', 'Arial', sans-serif;font-size:41.986px;">Client</text></g><g id="Database"><path d="M1269.33,219.562l85.196,-0l0,65.058c0,8.692 -19.087,15.749 -42.598,15.749c-23.51,-0 -42.598,-7.057 -42.598,-15.749l0,-65.058Z" style="fill:#d0f562;"/><path d="M1269.33,219.562l85.196,-0l0,65.058c0,8.692 -19.087,15.749 -42.598,15.749c-23.51,-0 -42.598,-7.057 -42.598,-15.749l0,-65.058Zm4.167,4.167l76.862,-0c0,-0 0,60.891 0,60.891c0,0.784 -0.466,1.481 -1.101,2.186c-1.119,1.242 -2.779,2.358 -4.831,3.392c-7.327,3.695 -19.169,6.004 -32.499,6.004c-13.329,0 -25.171,-2.309 -32.498,-6.004c-2.052,-1.034 -3.712,-2.15 -4.831,-3.392c-0.636,-0.705 -1.102,-1.402 -1.102,-2.186l0,-60.891Z" style="fill:#9bcb0d;"/><ellipse cx="1311.92" cy="219.562" rx="42.598" ry="15.748" style="fill:#d0f562;"/><path d="M1311.92,203.814c23.511,-0 42.598,7.056 42.598,15.748c0,8.692 -19.087,15.748 -42.598,15.748c-23.51,0 -42.598,-7.056 -42.598,-15.748c0,-8.692 19.088,-15.748 42.598,-15.748Zm0,4.166c13.33,0 25.172,2.31 32.499,6.004c2.052,1.035 3.712,2.15 4.831,3.392c0.635,0.705 1.101,1.402 1.101,2.186c0,0.784 -0.466,1.481 -1.101,2.186c-1.119,1.242 -2.779,2.357 -4.831,3.392c-7.327,3.694 -19.169,6.004 -32.499,6.004c-13.329,-0 -25.171,-2.31 -32.498,-6.004c-2.052,-1.035 -3.712,-2.15 -4.831,-3.392c-0.636,-0.705 -1.102,-1.402 -1.102,-2.186c0,-0.784 0.466,-1.481 1.102,-2.186c1.119,-1.242 2.779,-2.357 4.831,-3.392c7.327,-3.694 19.169,-6.004 32.498,-6.004Z" style="fill:#9bcb0d;"/></g><g id="Database1" serif:id="Database"><path d="M1949.25,219.562l85.196,-0l-0,65.058c-0,8.692 -19.087,15.749 -42.598,15.749c-23.51,-0 -42.598,-7.057 -42.598,-15.749l0,-65.058Z" style="fill:#d0f562;"/><path d="M1949.25,219.562l85.196,-0l-0,65.058c-0,8.692 -19.087,15.749 -42.598,15.749c-23.51,-0 -42.598,-7.057 -42.598,-15.749l0,-65.058Zm4.167,4.167l76.862,-0c0,-0 0,60.891 0,60.891c0,0.784 -0.466,1.481 -1.101,2.186c-1.119,1.242 -2.78,2.358 -4.831,3.392c-7.328,3.695 -19.169,6.004 -32.499,6.004c-13.329,0 -25.171,-2.309 -32.498,-6.004c-2.052,-1.034 -3.712,-2.15 -4.831,-3.392c-0.636,-0.705 -1.102,-1.402 -1.102,-2.186l0,-60.891Z" style="fill:#9bcb0d;"/><ellipse cx="1991.85" cy="219.562" rx="42.598" ry="15.748" style="fill:#d0f562;"/><path d="M1991.85,203.814c23.511,-0 42.598,7.056 42.598,15.748c-0,8.692 -19.087,15.748 -42.598,15.748c-23.51,0 -42.598,-7.056 -42.598,-15.748c0,-8.692 19.088,-15.748 42.598,-15.748Zm0,4.166c13.33,0 25.171,2.31 32.499,6.004c2.051,1.035 3.712,2.15 4.831,3.392c0.635,0.705 1.101,1.402 1.101,2.186c0,0.784 -0.466,1.481 -1.101,2.186c-1.119,1.242 -2.78,2.357 -4.831,3.392c-7.328,3.694 -19.169,6.004 -32.499,6.004c-13.329,-0 -25.171,-2.31 -32.498,-6.004c-2.052,-1.035 -3.712,-2.15 -4.831,-3.392c-0.636,-0.705 -1.102,-1.402 -1.102,-2.186c-0,-0.784 0.466,-1.481 1.102,-2.186c1.119,-1.242 2.779,-2.357 4.831,-3.392c7.327,-3.694 19.169,-6.004 32.498,-6.004Z" style="fill:#9bcb0d;"/></g></g></svg>