<?xml version="1.0" encoding="UTF-8" standalone="no"?><!DOCTYPE svg PUBLIC "-//W3C//DTD SVG 1.1//EN" "http://www.w3.org/Graphics/SVG/1.1/DTD/svg11.dtd"><svg width="100%" height="100%" viewBox="0 0 1226 632" version="1.1" xmlns="http://www.w3.org/2000/svg" xmlns:xlink="http://www.w3.org/1999/xlink" xml:space="preserve" xmlns:serif="http://www.serif.com/" style="fill-rule:evenodd;clip-rule:evenodd;stroke-linejoin:round;stroke-miterlimit:2;"><g id="Deployment"><g id="Deployment1" serif:id="Deployment"><path d="M1226,31.558c0,-17.418 -14.14,-31.558 -31.558,-31.558l-1162.88,0c-17.418,0 -31.558,14.14 -31.558,31.558l0,568.035c0,17.417 14.14,31.557 31.558,31.557l1162.88,0c17.418,0 31.558,-14.14 31.558,-31.557l0,-568.035Zm-4.167,-0.001l0,568.036c0,15.117 -12.273,27.391 -27.391,27.391c0,-0 -1162.88,-0 -1162.88,-0c-15.118,-0 -27.391,-12.274 -27.391,-27.391c-0,-0 -0,-568.035 -0,-568.035c-0,-15.118 12.273,-27.391 27.391,-27.391l1162.88,-0c15.118,-0 27.391,12.273 27.391,27.39Z" style="fill:#383838;"/><g id="Deployment2" serif:id="Deployment"><path d="M196,26c0,-14.35 -11.65,-26 -26,-26l-144,0c-14.35,0 -26,11.65 -26,26l0,52c0,14.35 11.65,26 26,26l144,0c14.35,0 26,-11.65 26,-26l0,-52Z" style="fill:#383838;"/><text x="30.428px" y="58.317px" style="font-family:'ArialMT', 'Arial', sans-serif;font-size:25px;fill:#fff;">Deployment</text></g><text x="449.621px" y="58.317px" style="font-family:'ArialMT', 'Arial', sans-serif;font-size:25px;fill:#383838;">Scaling, self-healing, updates</text></g><g id="Pod"><path d="M1091.5,153.625c0,-11.466 -9.309,-20.775 -20.776,-20.775l-915.448,-0c-11.467,-0 -20.776,9.309 -20.776,20.775l0,373.965c0,11.466 9.309,20.775 20.776,20.775l915.448,0c11.467,0 20.776,-9.309 20.776,-20.775l0,-373.965Zm-4.167,0l0,373.965c0,9.166 -7.442,16.609 -16.609,16.609c0,-0 -915.448,-0 -915.448,-0c-9.167,-0 -16.609,-7.443 -16.609,-16.609c-0,-0 -0,-373.965 -0,-373.965c-0,-9.167 7.442,-16.609 16.609,-16.609c-0,0 915.448,0 915.448,0c9.167,0 16.609,7.442 16.609,16.609Z" style="fill:#383838;"/><g id="Pod1" serif:id="Pod"><path d="M280.5,154.1c0,-11.729 -9.522,-21.25 -21.25,-21.25l-103.5,-0c-11.728,-0 -21.25,9.521 -21.25,21.25l0,42.5c0,11.728 9.522,21.25 21.25,21.25l103.5,-0c11.728,-0 21.25,-9.522 21.25,-21.25l0,-42.5Z" style="fill:#383838;"/><text x="185.198px" y="184.151px" style="font-family:'ArialMT', 'Arial', sans-serif;font-size:25px;fill:#fff;">Pod</text></g><text x="475.805px" y="181.819px" style="font-family:'ArialMT', 'Arial', sans-serif;font-size:25px;fill:#383838;">atomic unit of scheduling</text></g><g id="Container"><path d="M967.5,265.271c0,-5.87 -4.766,-10.636 -10.637,-10.636l-687.726,-0c-5.871,-0 -10.637,4.766 -10.637,10.636l0,191.458c0,5.87 4.766,10.636 10.637,10.636l687.726,0c5.871,0 10.637,-4.766 10.637,-10.636l0,-191.458Zm-4.167,0l0,191.458c0,3.571 -2.899,6.47 -6.47,6.47c0,-0 -687.726,-0 -687.726,-0c-3.571,-0 -6.47,-2.899 -6.47,-6.47c-0,-0 -0,-191.458 -0,-191.458c-0,-3.571 2.899,-6.47 6.47,-6.47l687.726,0c3.571,0 6.47,2.899 6.47,6.47Z" style="fill:#383838;"/><g id="Pod2" serif:id="Pod"><path d="M404.5,275.885c0,-11.729 -9.522,-21.25 -21.25,-21.25l-103.5,-0c-11.728,-0 -21.25,9.521 -21.25,21.25l0,42.5c0,11.728 9.522,21.25 21.25,21.25l103.5,-0c11.728,-0 21.25,-9.522 21.25,-21.25l0,-42.5Z" style="fill:#383838;"/><text x="276.507px" y="306.082px" style="font-family:'ArialMT', 'Arial', sans-serif;font-size:25px;fill:#fff;">Container</text></g><text x="485.614px" y="367.464px" style="font-family:'ArialMT', 'Arial', sans-serif;font-size:25px;fill:#383838;">App and dependencies</text></g></g></svg>