<?xml version="1.0" encoding="UTF-8" standalone="no"?><!DOCTYPE svg PUBLIC "-//W3C//DTD SVG 1.1//EN" "http://www.w3.org/Graphics/SVG/1.1/DTD/svg11.dtd"><svg width="100%" height="100%" viewBox="0 0 1992 674" version="1.1" xmlns="http://www.w3.org/2000/svg" xmlns:xlink="http://www.w3.org/1999/xlink" xml:space="preserve" xmlns:serif="http://www.serif.com/" style="fill-rule:evenodd;clip-rule:evenodd;stroke-linejoin:round;stroke-miterlimit:2;"><g id="Hexagonal-Architecture" serif:id="Hexagonal Architecture"><g id="Infrastructure"><path d="M992.657,0l291.427,168.255l-0,336.511l-291.427,168.256l-291.427,-168.256l-0,-336.511l291.427,-168.255Z" style="fill:#ff9254;"/><path d="M992.657,-0l291.427,168.255l-0,336.511l-291.427,168.256l-291.427,-168.256l-0,-336.511l291.427,-168.255Zm-0,4.811l287.26,165.85c0,0 0,331.7 0,331.7c0,-0 -261.229,150.82 -287.26,165.85c-0,-0 -287.261,-165.85 -287.261,-165.85c0,-0 0,-331.7 0,-331.7c24.769,-14.3 262.493,-151.55 287.261,-165.85l-0,0Z" style="fill:#f56e0d;"/><g transform="matrix(0.866025,-0.5,0.5,0.866025,2349.15,-2353.66)"><text x="-2611.04px" y="1412.08px" style="font-family:'ArialMT', 'Arial', sans-serif;font-size:31.087px;">Infrastructure</text></g></g><g id="Ports"><rect x="619.165" y="168.227" width="82.069" height="63.95" style="fill:#ff5454;"/><path d="M701.235,168.227l-82.07,-0l0,63.95l82.07,-0l-0,-63.95Zm-4.167,4.166l-0,55.617c-0,0 -73.736,0 -73.736,0c0,0 0,-55.617 0,-55.617l73.736,0Z" style="fill:#ab0000;"/><rect x="619.165" y="440.814" width="82.069" height="63.95" style="fill:#ff5454;"/><path d="M701.235,440.814l-82.07,-0l0,63.95l82.07,-0l-0,-63.95Zm-4.167,4.166l-0,55.617c-0,-0 -73.736,-0 -73.736,-0c0,-0 0,-55.617 0,-55.617l73.736,0Z" style="fill:#ab0000;"/><rect x="619.165" y="304.121" width="82.069" height="63.95" style="fill:#ff5454;"/><path d="M701.235,304.121l-82.07,-0l0,63.95l82.07,-0l-0,-63.95Zm-4.167,4.166l-0,55.617c-0,-0 -73.736,-0 -73.736,-0c0,-0 0,-55.617 0,-55.617l73.736,0Z" style="fill:#ab0000;"/></g><g id="Ports1" serif:id="Ports"><rect x="1283.85" y="168.391" width="82.069" height="63.95" style="fill:#ff5454;"/><path d="M1365.92,168.391l-82.069,0l0,63.95l82.069,0l0,-63.95Zm-4.166,4.167l-0,55.617c-0,-0 -73.736,-0 -73.736,-0c-0,-0 -0,-55.617 -0,-55.617l73.736,0Z" style="fill:#ab0000;"/><rect x="1283.85" y="440.978" width="82.069" height="63.95" style="fill:#ff5454;"/><path d="M1365.92,440.978l-82.069,0l0,63.95l82.069,0l0,-63.95Zm-4.166,4.167l-0,55.617c-0,-0 -73.736,-0 -73.736,-0c-0,-0 -0,-55.617 -0,-55.617l73.736,-0Z" style="fill:#ab0000;"/><rect x="1283.85" y="304.285" width="82.069" height="63.95" style="fill:#ff5454;"/><path d="M1365.92,304.285l-82.069,0l0,63.95l82.069,0l0,-63.95Zm-4.166,4.167l-0,55.617c-0,-0 -73.736,-0 -73.736,-0c-0,-0 -0,-55.617 -0,-55.617l73.736,-0Z" style="fill:#ab0000;"/></g><g id="Adapter-left" serif:id="Adapter left"><path d="M595.028,440.814l82.069,-0l0,-72.743l-82.069,-0l0,-63.95l82.064,-0l0,-71.799l-82.064,-0l0,-64.095l-161.571,-0l-0,336.537l161.571,-0l0,-63.95Z" style="fill:#7be6e7;"/><path d="M595.028,440.814l82.069,-0l0,-72.743l-82.069,-0l0,-63.95l82.064,-0l0,-71.799l-82.064,-0l0,-64.095l-161.571,-0l-0,336.537l161.571,-0l0,-63.95Zm0,-4.167c-2.301,-0 -4.167,1.865 -4.167,4.167l0,59.783c0,-0 -153.238,-0 -153.238,-0c0,-0 0,-328.204 0,-328.204c22.633,0 130.606,0 153.238,0c0,0 0,59.929 0,59.929c0,2.301 1.866,4.166 4.167,4.166l77.898,0c-0,0 -0,63.466 -0,63.466c-0,-0 -77.898,-0 -77.898,-0c-2.301,-0 -4.167,1.865 -4.167,4.167c0,-0 0,63.95 0,63.95c0,2.301 1.866,4.166 4.167,4.166l77.903,0c-0,0 -0,64.41 -0,64.41c-0,-0 -77.903,-0 -77.903,-0Z" style="fill:#23bebf;"/><g transform="matrix(2.22045e-16,-1,1,2.22045e-16,-6461.61,-4823.55)"><text x="-5214.68px" y="6982.3px" style="font-family:'ArialMT', 'Arial', sans-serif;font-size:31.087px;">Adapter</text></g></g><g id="Adapter-right" serif:id="Adapter right"><path d="M1389.99,232.341l-81.726,0l-0,71.944l81.726,0l0,63.95l-81.833,0l-0,72.743l81.833,0l0,63.923l161.618,0l0,-336.51l-161.618,0l0,63.95Z" style="fill:#7be6e7;"/><path d="M1389.99,232.341l-81.726,0l-0,71.944l81.726,0l0,63.95l-81.833,0l-0,72.743l81.833,0l0,63.923l161.618,0l0,-336.51l-161.618,0l0,63.95Zm0,4.167c2.302,0 4.167,-1.865 4.167,-4.167l0,-59.783c0,0 153.285,0 153.285,0c-0,0 -0,328.177 -0,328.177c-22.637,-0 -130.648,-0 -153.285,-0c0,-0 0,-59.757 0,-59.757c0,-2.301 -1.865,-4.166 -4.167,-4.166l-77.667,-0c0,-0 0,-64.41 0,-64.41c0,-0 77.667,-0 77.667,-0c2.302,-0 4.167,-1.866 4.167,-4.167l0,-63.95c0,-2.301 -1.865,-4.166 -4.167,-4.166l-77.559,-0c-0,-0 -0,-63.611 -0,-63.611c-0,0 77.559,0 77.559,0Z" style="fill:#23bebf;"/><g transform="matrix(2.22045e-16,-1,1,2.22045e-16,-5501.9,-3863.53)"><text x="-4254.81px" y="6982.45px" style="font-family:'ArialMT', 'Arial', sans-serif;font-size:31.087px;">Adapter</text></g></g><g id="Application"><path d="M992.657,97.298l207.165,119.606l-0,239.214l-207.165,119.606l-207.165,-119.606l0,-239.214l207.165,-119.606Z" style="fill:#51dd4e;"/><path d="M992.657,97.298l207.165,119.606l-0,239.214l-207.165,119.606l-207.165,-119.606l0,-239.214l207.165,-119.606Zm-0,4.811l202.998,117.201c-0,23.451 -0,210.951 -0,234.402c-20.309,11.725 -182.689,105.476 -202.998,117.201c-0,-0 -202.998,-117.201 -202.998,-117.201c-0,-23.451 -0,-210.951 -0,-234.402c-0,-0 202.998,-117.201 202.998,-117.201l-0,0Z" style="fill:#24ad21;"/><g transform="matrix(0.866025,-0.5,0.5,0.866025,2188.34,-2151.75)"><text x="-2350.18px" y="1404.98px" style="font-family:'ArialMT', 'Arial', sans-serif;font-size:29.267px;">Application</text></g></g><g id="Order"><path d="M992.657,196.465l121.283,70.023l0,140.046l-121.283,70.023l-121.283,-70.023l-0,-140.046l121.283,-70.023Z" style="fill:#ff5454;"/><path d="M992.657,196.465l121.283,70.023l0,140.046l-121.283,70.023l-121.283,-70.023l-0,-140.046l121.283,-70.023Zm-0,4.811l117.116,67.618c0,-0 0,135.234 0,135.234c0,0 -117.116,67.617 -117.116,67.617c-0,0 -117.117,-67.617 -117.117,-67.617c0,0 0,-135.234 0,-135.234l117.117,-67.618Z" style="fill:#ab0000;"/><g transform="matrix(0.866025,-0.5,0.5,0.866025,2140.64,-2080.45)"><text x="-2240.97px" y="1529.64px" style="font-family:'ArialMT', 'Arial', sans-serif;font-size:29.267px;">Order</text></g></g><g id="grpc"><rect x="0" y="264.17" width="269.656" height="144.953" style="fill:#e77bcf;"/><path d="M269.656,264.17l-269.656,-0l0,144.953l269.656,0l-0,-144.953Zm-4.167,4.166l0,136.62c0,0 -261.322,0 -261.322,0c-0,0 -0,-136.62 -0,-136.62c-0,0 261.322,0 261.322,0l0,0Z" style="fill:#af208f;"/><text x="93.48px" y="344.691px" style="font-family:'ArialMT', 'Arial', sans-serif;font-size:31.087px;">gRPC</text></g><path d="M433.457,335.908l-0,1.477l-141.649,-0l0,6.646l-22.152,-7.385l22.152,-7.384l0,6.646l141.649,-0Z"/><path d="M1551.85,236.431l0,-1.477l156.223,0l0,-6.646l22.153,7.385l-22.153,7.384l0,-6.646l-156.223,-0Z"/><path d="M1551.85,436.808l0,-1.477l156.223,-0l0,-6.646l22.153,7.384l-22.153,7.384l0,-6.645l-156.223,-0Z"/><g id="MySQL"><rect x="1730.23" y="168.391" width="261.129" height="134.602" style="fill:#ffc554;"/><path d="M1991.36,168.391l-261.129,0l-0,134.603l261.129,-0l-0,-134.603Zm-4.167,4.167l0,126.269c0,0 -252.796,0 -252.796,0c0,0 0,-126.269 0,-126.269l252.796,0Z" style="fill:#f8a400;"/><text x="1808.37px" y="243.745px" style="font-family:'ArialMT', 'Arial', sans-serif;font-size:31.087px;">MySQL</text></g><g id="MySQL1" serif:id="MySQL"><rect x="1730.23" y="368.768" width="261.129" height="134.602" style="fill:#ffc554;"/><path d="M1991.36,368.768l-261.129,0l-0,134.602l261.129,0l-0,-134.602Zm-4.167,4.167l0,126.269c0,-0 -219.654,-0 -252.796,-0c0,-0 0,-126.269 0,-126.269l252.796,-0Z" style="fill:#f8a400;"/><text x="1798.37px" y="443.924px" style="font-family:'ArialMT', 'Arial', sans-serif;font-size:31.087px;">Payment</text></g><text x="566.939px" y="119.55px" style="font-family:'ArialMT', 'Arial', sans-serif;font-size:31.087px;">Uses</text><text x="1309.53px" y="113.752px" style="font-family:'ArialMT', 'Arial', sans-serif;font-size:31.087px;">Implements</text><g transform="matrix(6.12323e-17,-1,1,6.12323e-17,-7947.92,-5013.12)"><text x="-5384.38px" y="8700.29px" style="font-family:'ArialMT', 'Arial', sans-serif;font-size:29.167px;">Ports</text></g><g transform="matrix(6.12323e-17,-1,1,6.12323e-17,-7453.76,-4519.29)"><text x="-4890.38px" y="8700.12px" style="font-family:'ArialMT', 'Arial', sans-serif;font-size:29.167px;">Ports</text></g></g></svg>