<?xml version="1.0" encoding="UTF-8" standalone="no"?><!DOCTYPE svg PUBLIC "-//W3C//DTD SVG 1.1//EN" "http://www.w3.org/Graphics/SVG/1.1/DTD/svg11.dtd"><svg width="100%" height="100%" viewBox="0 0 1125 431" version="1.1" xmlns="http://www.w3.org/2000/svg" xmlns:xlink="http://www.w3.org/1999/xlink" xml:space="preserve" xmlns:serif="http://www.serif.com/" style="fill-rule:evenodd;clip-rule:evenodd;stroke-linejoin:round;stroke-miterlimit:2;"><g id="Services"><g id="Pod"><path d="M363,349.491c-0,-2.345 -1.904,-4.25 -4.25,-4.25l-213.5,0c-2.346,0 -4.25,1.905 -4.25,4.25l-0,76.5c-0,2.346 1.904,4.25 4.25,4.25l213.5,0c2.346,0 4.25,-1.904 4.25,-4.25l-0,-76.5Zm-4.167,0l0,76.5c0,0.046 -0.037,0.084 -0.083,0.084l-213.5,-0c-0.046,-0 -0.083,-0.038 -0.083,-0.084c-0,0 -0,-76.5 -0,-76.5c-0,-0.046 0.037,-0.083 0.083,-0.083c-0,-0 213.5,-0 213.5,-0c0.046,-0 0.083,0.037 0.083,0.083Z" style="fill:#383838;"/><g id="Pod1" serif:id="Pod"><rect x="0" y="345.241" width="146" height="85" style="fill:#383838;"/><text x="50.698px" y="396.543px" style="font-family:'ArialMT', 'Arial', sans-serif;font-size:25px;fill:#fff;">Pod</text></g><text x="209.99px" y="394.358px" style="font-family:'ArialMT', 'Arial', sans-serif;font-size:25px;fill:#383838;">foo-app</text></g><rect x="381" y="136.989" width="363" height="106" style="fill:#383838;"/><path d="M744,136.989l-363,0l0,106l363,0l-0,-106Zm-4.167,4.167l0,97.667c-37.551,-0 -317.115,-0 -354.666,-0c-0,-0 -0,-97.667 -0,-97.667c37.551,-0 317.115,-0 354.666,-0l0,-0Z" style="fill:#202020;"/><text x="484.05px" y="201.92px" style="font-family:'ArialMT', 'Arial', sans-serif;font-size:33.333px;fill:#fff;">FooService</text><g id="Pod2" serif:id="Pod"><path d="M744,349.491c-0,-2.345 -1.904,-4.25 -4.25,-4.25l-213.5,0c-2.346,0 -4.25,1.905 -4.25,4.25l-0,76.5c-0,2.346 1.904,4.25 4.25,4.25l213.5,0c2.346,0 4.25,-1.904 4.25,-4.25l-0,-76.5Zm-4.167,0l0,76.5c0,0.046 -0.037,0.084 -0.083,0.084l-213.5,-0c-0.046,-0 -0.083,-0.038 -0.083,-0.084c-0,0 -0,-76.5 -0,-76.5c-0,-0.046 0.037,-0.083 0.083,-0.083c-0,-0 213.5,-0 213.5,-0c0.046,-0 0.083,0.037 0.083,0.083Z" style="fill:#383838;"/><g id="Pod3" serif:id="Pod"><rect x="381" y="345.241" width="146" height="85" style="fill:#383838;"/><text x="431.698px" y="396.543px" style="font-family:'ArialMT', 'Arial', sans-serif;font-size:25px;fill:#fff;">Pod</text></g><text x="590.99px" y="394.358px" style="font-family:'ArialMT', 'Arial', sans-serif;font-size:25px;fill:#383838;">foo-app</text></g><g id="Pod4" serif:id="Pod"><path d="M1125,349.491c-0,-2.345 -1.904,-4.25 -4.25,-4.25l-213.5,0c-2.346,0 -4.25,1.905 -4.25,4.25l-0,76.5c-0,2.346 1.904,4.25 4.25,4.25l213.5,0c2.346,0 4.25,-1.904 4.25,-4.25l-0,-76.5Zm-4.167,0l0,76.5c0,0.046 -0.037,0.084 -0.083,0.084l-213.5,-0c-0.046,-0 -0.083,-0.038 -0.083,-0.084l-0,-76.5c-0,-0.046 0.037,-0.083 0.083,-0.083c-0,-0 213.5,-0 213.5,-0c0.046,-0 0.083,0.037 0.083,0.083Z" style="fill:#383838;"/><g id="Pod5" serif:id="Pod"><rect x="762" y="345.241" width="146" height="85" style="fill:#383838;"/><text x="812.698px" y="396.543px" style="font-family:'ArialMT', 'Arial', sans-serif;font-size:25px;fill:#fff;">Pod</text></g><text x="971.99px" y="394.358px" style="font-family:'ArialMT', 'Arial', sans-serif;font-size:25px;fill:#383838;">foo-app</text></g><path d="M561.75,241.241l1.5,0l0,81.5l6.75,0l-7.5,22.5l-7.5,-22.5l6.75,0l-0,-81.5Z" style="fill:#383838;"/><path d="M561.75,241.241l1.5,0l0,81.5l6.75,0l-7.5,22.5l-7.5,-22.5l6.75,0l-0,-81.5Zm0.75,85.598c-0.243,0.046 -0.494,0.069 -0.75,0.069c-0,-0 -0.969,-0 -0.969,0c-0,0 1.719,5.157 1.719,5.157c0,0 1.719,-5.157 1.719,-5.157l-0.969,-0c-0.256,-0 -0.507,-0.023 -0.75,-0.069Z" style="fill:#383838;"/><path d="M561.75,83l1.5,-0l0,31.5l6.75,-0l-7.5,22.5l-7.5,-22.5l6.75,-0l-0,-31.5Z" style="fill:#383838;"/><path d="M561.75,83l1.5,0l0,31.5l6.75,0l-7.5,22.5l-7.5,-22.5l6.75,0l-0,-31.5Zm0.75,35.598c-0.243,0.046 -0.494,0.069 -0.75,0.069c-0,-0 -0.969,-0 -0.969,-0c-0,-0 1.719,5.157 1.719,5.157c0,-0 1.719,-5.157 1.719,-5.157l-0.969,-0c-0.256,-0 -0.507,-0.023 -0.75,-0.069Z" style="fill:#383838;"/><rect x="180.75" y="288.741" width="763.5" height="1.5" style="fill:#383838;"/><rect x="180.75" y="288.741" width="763.5" height="1.5" style="fill:#383838;"/><path d="M942.75,290.241l1.5,0l0,32.5l6.75,0l-7.5,22.5l-7.5,-22.5l6.75,0l-0,-32.5Z" style="fill:#383838;"/><path d="M942.75,290.241l1.5,0l0,32.5l6.75,0l-7.5,22.5l-7.5,-22.5l6.75,0l-0,-32.5Zm0.75,36.598c-0.243,0.046 -0.494,0.069 -0.75,0.069c-0,-0 -0.969,-0 -0.969,0c-0,0 1.719,5.157 1.719,5.157c0,0 1.719,-5.157 1.719,-5.157l-0.969,-0c-0.256,-0 -0.507,-0.023 -0.75,-0.069Z" style="fill:#383838;"/><path d="M180.75,290.241l1.5,0l0,32.5l6.75,0l-7.5,22.5l-7.5,-22.5l6.75,0l-0,-32.5Z" style="fill:#383838;"/><path d="M180.75,290.241l1.5,0l0,32.5l6.75,0l-7.5,22.5l-7.5,-22.5l6.75,0l-0,-32.5Zm0.75,36.598c-0.243,0.046 -0.494,0.069 -0.75,0.069c-0,-0 -0.969,-0 -0.969,0c-0,0 1.719,5.157 1.719,5.157c0,0 1.719,-5.157 1.719,-5.157l-0.969,-0c-0.256,-0 -0.507,-0.023 -0.75,-0.069Z" style="fill:#383838;"/><rect x="435" y="0" width="240" height="83" style="fill:#ededed;"/><path d="M675,0l-240,0l-0,83l240,0l-0,-83Zm-4.167,4.167l0,74.666c0,0 -231.666,0 -231.666,0c-0,0 -0,-74.666 -0,-74.666l231.666,-0Z" style="fill:#bebebe;"/><text x="499.643px" y="49.041px" style="font-family:'ArialMT', 'Arial', sans-serif;font-size:29.167px;fill:#383838;">Request</text></g></svg>