<?xml version="1.0" encoding="UTF-8" standalone="no"?><!DOCTYPE svg PUBLIC "-//W3C//DTD SVG 1.1//EN" "http://www.w3.org/Graphics/SVG/1.1/DTD/svg11.dtd"><svg width="100%" height="100%" viewBox="0 0 1357 650" version="1.1" xmlns="http://www.w3.org/2000/svg" xmlns:xlink="http://www.w3.org/1999/xlink" xml:space="preserve" xmlns:serif="http://www.serif.com/" style="fill-rule:evenodd;clip-rule:evenodd;stroke-linejoin:round;stroke-miterlimit:2;"><g id="kubernetes"><path d="M500,55.485l-500,0l0,275l500,0l0,-275Zm-4.167,4.167l0,266.666c0,0 -491.666,0 -491.666,0c-0,0 -0,-266.666 -0,-266.666l491.666,-0Z" style="fill:#383838;"/><path d="M500,355.485l-500,0l0,75l500,0l0,-75Zm-4.167,4.167l0,66.666c0,0 -491.666,0 -491.666,0c-0,0 -0,-66.666 -0,-66.666c-0,-0 491.666,-0 491.666,-0l0,-0Z" style="fill:#383838;"/><text x="225.985px" y="404.72px" style="font-family:'ArialMT', 'Arial', sans-serif;font-size:33.333px;fill:#383838;">OS</text><g id="Services"><g id="API-Server" serif:id="API Server"><rect x="25" y="80.485" width="200" height="100" style="fill:#383838;"/><text x="46.997px" y="142.22px" style="font-family:'ArialMT', 'Arial', sans-serif;font-size:33.333px;fill:#ededed;">API server</text></g><g id="Scheduler"><rect x="275" y="80.485" width="200" height="100" style="fill:#383838;"/><text x="298.975px" y="142.415px" style="font-family:'ArialMT', 'Arial', sans-serif;font-size:33.333px;fill:#ededed;">Scheduler</text></g><g id="etcd"><rect x="25" y="205.485" width="200" height="100" style="fill:#383838;"/><text x="94.092px" y="267.22px" style="font-family:'ArialMT', 'Arial', sans-serif;font-size:33.333px;fill:#ededed;">etcd</text></g><g id="Controllers"><rect x="275" y="205.485" width="200" height="100" style="fill:#383838;"/><text x="294.23px" y="267.415px" style="font-family:'ArialMT', 'Arial', sans-serif;font-size:33.333px;fill:#ededed;">Controllers</text></g></g><text x="112.899px" y="23.861px" style="font-family:'ArialMT', 'Arial', sans-serif;font-size:33.333px;fill:#383838;">control plane node</text><g id="workder-node" serif:id="workder node"><path d="M1357,55.485l-750,0l-0,150l750,0l-0,-150Zm-4.167,4.167l0,141.666c0,0 -741.666,0 -741.666,0c-0,0 -0,-141.666 -0,-141.666l741.666,-0Z" style="fill:#383838;"/><g id="os"><path d="M1357,230.485l-750,0l0,75l750,0l-0,-75Zm-4.167,4.167l0,66.666c0,0 -741.666,0 -741.666,0c-0,0 -0,-66.666 -0,-66.666c-0,-0 741.666,-0 741.666,-0l0,-0Z" style="fill:#383838;"/><text x="957.985px" y="279.72px" style="font-family:'ArialMT', 'Arial', sans-serif;font-size:33.333px;fill:#383838;">OS</text></g><g id="Services1" serif:id="Services"><g id="API-Server1" serif:id="API Server"><rect x="632" y="80.485" width="200" height="100" style="fill:#383838;"/><text x="674.375px" y="142.22px" style="font-family:'ArialMT', 'Arial', sans-serif;font-size:33.333px;fill:#ededed;">Kubelet</text></g><g id="Scheduler1" serif:id="Scheduler"><rect x="882" y="80.485" width="200" height="100" style="fill:#383838;"/><text x="967.238px" y="142.415px" style="font-family:'ArialMT', 'Arial', sans-serif;font-size:33.333px;fill:#ededed;">cr</text></g><g id="Controllers1" serif:id="Controllers"><rect x="1132" y="80.485" width="200" height="100" style="fill:#383838;"/><text x="1148.59px" y="142.415px" style="font-family:'ArialMT', 'Arial', sans-serif;font-size:33.333px;fill:#ededed;">kube-proxy</text></g></g></g><g id="workder-node1" serif:id="workder node"><path d="M1357,335.485l-750,0l-0,150l750,0l-0,-150Zm-4.167,4.167l0,141.666c0,0 -741.666,0 -741.666,0c-0,0 -0,-141.666 -0,-141.666l741.666,-0Z" style="fill:#383838;"/><g id="os1" serif:id="os"><path d="M1357,510.485l-750,0l0,75l750,0l-0,-75Zm-4.167,4.167l0,66.666c0,0 -741.666,0 -741.666,0c-0,0 -0,-66.666 -0,-66.666c-0,-0 741.666,-0 741.666,-0l0,-0Z" style="fill:#383838;"/><text x="957.985px" y="559.72px" style="font-family:'ArialMT', 'Arial', sans-serif;font-size:33.333px;fill:#383838;">OS</text></g><g id="Services2" serif:id="Services"><g id="API-Server2" serif:id="API Server"><rect x="632" y="360.485" width="200" height="100" style="fill:#383838;"/><text x="674.375px" y="422.22px" style="font-family:'ArialMT', 'Arial', sans-serif;font-size:33.333px;fill:#ededed;">Kubelet</text></g><g id="Scheduler2" serif:id="Scheduler"><rect x="882" y="360.485" width="200" height="100" style="fill:#383838;"/><text x="967.238px" y="422.415px" style="font-family:'ArialMT', 'Arial', sans-serif;font-size:33.333px;fill:#ededed;">cr</text></g><g id="Controllers2" serif:id="Controllers"><rect x="1132" y="360.485" width="200" height="100" style="fill:#383838;"/><text x="1148.59px" y="422.415px" style="font-family:'ArialMT', 'Arial', sans-serif;font-size:33.333px;fill:#ededed;">kube-proxy</text></g></g></g><text x="882.545px" y="23.861px" style="font-family:'ArialMT', 'Arial', sans-serif;font-size:33.333px;fill:#383838;">worker nodes</text><text x="961.065px" y="649.417px" style="font-family:'ArialMT', 'Arial', sans-serif;font-size:50px;fill:#383838;">...</text></g></svg>