<?xml version="1.0" encoding="UTF-8" standalone="no"?><!DOCTYPE svg PUBLIC "-//W3C//DTD SVG 1.1//EN" "http://www.w3.org/Graphics/SVG/1.1/DTD/svg11.dtd"><svg width="100%" height="100%" viewBox="0 0 2115 573" version="1.1" xmlns="http://www.w3.org/2000/svg" xmlns:xlink="http://www.w3.org/1999/xlink" xml:space="preserve" xmlns:serif="http://www.serif.com/" style="fill-rule:evenodd;clip-rule:evenodd;stroke-linecap:round;stroke-linejoin:round;stroke-miterlimit:1.5;"><g id="messaging"><g id="Api-Gateway" serif:id="Api Gateway"><g id="Consumer"><g id="Service"><path d="M1914.31,2.125l198.308,115.473l-0,230.947l-198.308,115.473l-198.307,-115.473l0,-230.947l198.307,-115.473Z" style="fill:#51dd4e;stroke:#24ad21;stroke-width:4.25px;"/></g><g id="Interface"><path d="M1623.46,416.919l0.826,1.854l133.154,-59.314l3.715,8.34l23.671,-21.65l-31.927,3.117l3.715,8.34l-133.154,59.313Z"/><rect x="1785.38" y="309.118" width="67.627" height="67.627" style="fill:#ededed;"/><path d="M1785.38,309.118l67.627,-0l0,67.627l-67.627,-0l0,-67.627Zm4.167,4.166l59.294,0c-0,0 -0,59.294 -0,59.294c-0,0 -59.294,0 -59.294,0l-0,-59.294Z" style="fill:#bebebe;"/></g><g><text x="1757.97px" y="156.484px" style="font-family:'ArialMT', 'Arial', sans-serif;font-size:66.477px;">Consumer</text><g id="Service1" serif:id="Service"><rect x="1777.85" y="191.081" width="272.918" height="68.385" style="fill:#ff9254;"/><path d="M2050.76,191.081l-272.918,0l0,68.386l272.918,-0l0,-68.386Zm-4.166,4.167l-0,60.052c-0,-0 -264.585,-0 -264.585,-0c-0,-0 -0,-60.052 -0,-60.052c31.591,-0 232.994,-0 264.585,-0l-0,-0Z" style="fill:#f46700;"/><text x="1872.58px" y="234.222px" style="font-family:'ArialMT', 'Arial', sans-serif;font-size:25px;fill:#383838;">Service</text></g><path d="M1815.85,308.675l-1.3,-0l0,-36.208l-5.85,-0l6.5,-13l6.5,13l-5.85,-0l0,36.208Z"/></g></g><g id="Publisher"><g id="Client"><path d="M200.419,2.125l198.294,115.478l-0,230.956l-198.294,115.479l-198.294,-115.479l-0,-230.956l198.294,-115.478Z" style="fill:#bef2f3;stroke:#2ed5d8;stroke-width:4.25px;"/><text x="58.831px" y="156.484px" style="font-family:'ArialMT', 'Arial', sans-serif;font-size:66.477px;">Publisher</text><g id="Service2" serif:id="Service"><rect x="63.96" y="191.081" width="272.918" height="68.385" style="fill:#ff9254;"/><path d="M336.878,191.081l-272.918,0l-0,68.386l272.918,-0l-0,-68.386Zm-4.167,4.167l0,60.052c0,-0 -230.586,-0 -264.585,-0c0,-0 0,-60.052 0,-60.052c33.999,-0 264.585,-0 264.585,-0l0,-0Z" style="fill:#f46700;"/><text x="158.695px" y="234.222px" style="font-family:'ArialMT', 'Arial', sans-serif;font-size:25px;fill:#383838;">Service</text></g><path d="M280.664,259.467l1.3,-0l-0,29.03l5.85,0l-6.5,13l-6.5,-13l5.85,0l-0,-29.03Z"/></g><g id="Interface1" serif:id="Interface"><path d="M472.617,409.299l-0.826,1.853l-133.154,-59.313l-3.714,8.339l-23.672,-21.649l31.927,3.117l-3.715,8.339l133.154,59.314Z"/><rect x="243.074" y="301.497" width="67.627" height="67.627" style="fill:#ededed;"/><path d="M310.701,301.497l-67.627,0l-0,67.628l67.627,-0l0,-67.628Zm-4.167,4.167l0,59.294c0,-0 -59.293,-0 -59.293,-0c-0,-0 -0,-59.294 -0,-59.294l59.293,0Z" style="fill:#bebebe;"/></g></g><g id="RPC-Server" serif:id="RPC Server"><rect x="1397.89" y="358.309" width="225" height="175" style="fill:#bee77b;stroke:#74a91f;stroke-width:4.17px;stroke-linecap:butt;"/><g transform="matrix(1.0348,0,0,1.0348,525.214,-1709.32)"><text x="874.077px" y="2076.39px" style="font-family:'ArialMT', 'Arial', sans-serif;font-size:38.122px;">Message</text><text x="884.669px" y="2115.75px" style="font-family:'ArialMT', 'Arial', sans-serif;font-size:38.122px;">Handler</text></g></g><g id="Messaging-infrastructure" serif:id="Messaging infrastructure"><rect x="897.754" y="320.809" width="300" height="250" style="fill:#bee77b;stroke:#74a91f;stroke-width:4.17px;stroke-linecap:butt;"/><g transform="matrix(1.0348,0,0,1.0348,62.7302,-1781.82)"><text x="859.241px" y="2076.39px" style="font-family:'ArialMT', 'Arial', sans-serif;font-size:38.122px;">Messaging</text><text x="840.189px" y="2115.75px" style="font-family:'ArialMT', 'Arial', sans-serif;font-size:38.122px;">infrastructure</text></g><text x="949.283px" y="530.827px" style="font-family:'ArialMT', 'Arial', sans-serif;font-size:25px;fill:#383838;">Message channel</text><g id="channel"><path d="M935.998,501.153c-0.328,0.142 -0.662,0.216 -1,0.216c-4.416,-0 -8,-12.448 -8,-27.78c-0,-15.333 3.584,-27.78 8,-27.78c0.338,-0 0.672,0.073 1,0.215l-0,-0.215l220.013,-0l0,55.56l-220.013,-0l-0,-0.216Z" style="fill:#ffc554;"/><path d="M932.153,499.555c-3.013,-3.986 -5.155,-14.115 -5.155,-25.966c-0,-15.333 3.584,-27.78 8,-27.78c0.338,-0 0.672,0.073 1,0.215l-0,-0.215l220.013,-0l0,55.56l-215.847,-0l-0.004,-0.173c-0.005,0.052 -0.019,0.11 -0.043,0.173l-1.713,-0c0.705,-0.952 1.36,-1.562 1.63,-1.04c-0.462,-1.798 -2.094,-3.127 -4.036,-3.127c-0,-0 215.846,-0 215.846,-0c0,-0 0,-47.227 0,-47.227l-215.585,0c-0.164,0.137 -0.261,0.216 -0.261,0.216c-0.156,-0 -0.312,-0.009 -0.466,-0.027c-0.363,0.548 -1.008,1.585 -1.379,2.531c-1.851,4.711 -2.989,12.323 -2.989,20.894c0,8.57 1.138,16.182 2.989,20.893c0.537,1.368 1.644,2.924 1.644,2.924c0,-0 -0.532,-0.204 -0.799,-0.204c-0.223,-0 -0.445,0.036 -0.66,0.129c-1.019,0.443 -1.785,1.254 -2.185,2.224Z" style="fill:#d99000;"/><ellipse cx="1156.01" cy="473.589" rx="12.5" ry="27.78" style="fill:#ffc554;"/><path d="M1156.01,445.809c6.899,-0 12.5,12.447 12.5,27.78c0,15.332 -5.601,27.78 -12.5,27.78c-6.899,-0 -12.5,-12.448 -12.5,-27.78c0,-15.333 5.601,-27.78 12.5,-27.78Zm0,4.166c1.544,0 2.672,1.49 3.829,3.376c2.798,4.559 4.504,11.943 4.504,20.238c0,8.294 -1.706,15.678 -4.504,20.237c-1.157,1.887 -2.285,3.376 -3.829,3.376c-1.544,-0 -2.671,-1.489 -3.829,-3.376c-2.798,-4.559 -4.504,-11.943 -4.504,-20.237c-0,-8.295 1.706,-15.679 4.504,-20.238c1.158,-1.886 2.285,-3.376 3.829,-3.376Z" style="fill:#d99000;"/></g></g><g id="RPC-Proxy" serif:id="RPC Proxy"><rect x="472.754" y="358.304" width="225" height="175" style="fill:#bee77b;stroke:#74a91f;stroke-width:4.17px;stroke-linecap:butt;"/><g transform="matrix(1.23454,0,0,1.23454,-589.961,-2124.08)"><text x="886.59px" y="2076.39px" style="font-family:'ArialMT', 'Arial', sans-serif;font-size:31.954px;">Message</text><text x="899.9px" y="2109.38px" style="font-family:'ArialMT', 'Arial', sans-serif;font-size:31.954px;">Sender</text></g></g></g><g id="Sends"><path d="M699.63,477.019l-0,-1.3l214.368,-0l-0,-5.85l13,6.5l-13,6.5l-0,-5.85l-214.368,-0Z"/><text x="759.137px" y="467.013px" style="font-family:'ArialMT', 'Arial', sans-serif;font-size:25px;">Sends</text></g><g id="Sends1" serif:id="Sends"><path d="M1168.63,478.496l-0,-1.3l214.368,0l-0,-5.85l13,6.5l-13,6.5l-0,-5.85l-214.368,0Z"/><text x="1228.14px" y="468.491px" style="font-family:'ArialMT', 'Arial', sans-serif;font-size:25px;">Receives</text></g><g transform="matrix(0.914629,-0.404295,0.404295,0.914629,3850.08,-2931.58)"><text x="-3360.43px" y="2188.22px" style="font-family:'ArialMT', 'Arial', sans-serif;font-size:25px;">Invokes</text></g><text x="87.006px" y="343.009px" style="font-family:'ArialMT', 'Arial', sans-serif;font-size:25px;fill:#383838;">sending port</text><text x="1876.01px" y="354.74px" style="font-family:'ArialMT', 'Arial', sans-serif;font-size:25px;fill:#383838;">receiving port</text></g></svg>