<?xml version="1.0" encoding="UTF-8" standalone="no"?><!DOCTYPE svg PUBLIC "-//W3C//DTD SVG 1.1//EN" "http://www.w3.org/Graphics/SVG/1.1/DTD/svg11.dtd"><svg width="100%" height="100%" viewBox="0 0 2205 930" version="1.1" xmlns="http://www.w3.org/2000/svg" xmlns:xlink="http://www.w3.org/1999/xlink" xml:space="preserve" xmlns:serif="http://www.serif.com/" style="fill-rule:evenodd;clip-rule:evenodd;stroke-linejoin:round;stroke-miterlimit:1.5;"><g id="Comparison-Microservice-Monotlith" serif:id="Comparison Microservice Monotlith"><g id="Service-Description" serif:id="Service Description"><rect x="1890.97" y="2.125" width="311.858" height="385.338" style="fill:#ededed;stroke:#bebebe;stroke-width:4.17px;"/><g><g><rect x="1928.91" y="206.988" width="65.036" height="65.036" style="fill:#e77bcf;stroke:#af208f;stroke-width:4.25px;stroke-linecap:round;"/><text x="2018.12px" y="248.921px" style="font-family:'ArialMT', 'Arial', sans-serif;font-size:37.26px;">Payment</text></g><g><rect x="1928.91" y="296.412" width="65.036" height="65.036" style="fill:#51dd4e;stroke:#24ad21;stroke-width:4.25px;stroke-linecap:round;"/><text x="2018.12px" y="338.345px" style="font-family:'ArialMT', 'Arial', sans-serif;font-size:37.26px;">Shipping</text></g><g><rect x="1928.91" y="117.563" width="65.036" height="65.036" style="fill:#ff5454;stroke:#ab0000;stroke-width:4.25px;stroke-linecap:round;"/><text x="2019.2px" y="163.426px" style="font-family:'ArialMT', 'Arial', sans-serif;font-size:37.26px;">Order</text></g><g><rect x="1928.91" y="28.139" width="65.036" height="65.036" style="fill:#ff9254;stroke:#f46700;stroke-width:4.17px;"/><text x="2018.07px" y="73.765px" style="font-family:'ArialMT', 'Arial', sans-serif;font-size:37.26px;">User</text></g></g></g><g id="Monolith"><g id="Monolith1" serif:id="Monolith"><rect x="2.125" y="2.996" width="857.26" height="811.729" style="fill:#fff;stroke:#bebebe;stroke-width:4.25px;stroke-linecap:round;"/><rect x="65.973" y="452.153" width="317.857" height="305.986" style="fill:#e77bcf;stroke:#af208f;stroke-width:4.25px;stroke-linecap:round;"/><rect x="477.679" y="452.153" width="317.857" height="305.986" style="fill:#51dd4e;stroke:#24ad21;stroke-width:4.25px;stroke-linecap:round;"/><rect x="477.679" y="59.581" width="317.857" height="305.986" style="fill:#ff5454;stroke:#ab0000;stroke-width:4.25px;stroke-linecap:round;"/><rect x="65.973" y="59.581" width="317.857" height="305.986" style="fill:#ff9254;stroke:#f46700;stroke-width:4.25px;stroke-linecap:round;"/></g><text x="295.289px" y="929.032px" style="font-family:'ArialMT', 'Arial', sans-serif;font-size:66.667px;">Monotlith</text></g><g id="Microservices"><g id="Microservices1" serif:id="Microservices"><rect x="977.935" y="2.125" width="400.66" height="385.338" style="fill:#fff;stroke:#bebebe;stroke-width:4.25px;stroke-linecap:round;"/><rect x="1422.95" y="2.125" width="400.66" height="385.338" style="fill:#fff;stroke:#bebebe;stroke-width:4.25px;stroke-linecap:round;"/><rect x="973.276" y="430.31" width="400.66" height="385.338" style="fill:#fff;stroke:#bebebe;stroke-width:4.25px;stroke-linecap:round;"/><rect x="1422.95" y="430.31" width="400.66" height="385.338" style="fill:#fff;stroke:#bebebe;stroke-width:4.25px;stroke-linecap:round;"/><path d="M1178.27,35.557l136.716,79.619l0,159.236l-136.716,79.618l-136.717,-79.618l0,-159.236l136.717,-79.619Z" style="fill:#ff9254;stroke:#f46700;stroke-width:4.17px;stroke-linecap:round;"/><path d="M1623.28,35.557l136.716,79.619l0,159.236l-136.716,79.618l-136.717,-79.618l0,-159.236l136.717,-79.619Z" style="fill:#ff5454;stroke:#ab0000;stroke-width:4.17px;stroke-linecap:round;"/><path d="M1623.28,463.743l136.716,79.618l0,159.236l-136.716,79.618l-136.717,-79.618l0,-159.236l136.717,-79.618Z" style="fill:#51dd4e;stroke:#24ad21;stroke-width:4.25px;stroke-linecap:round;"/><path d="M1173.61,463.743l136.717,79.618l-0,159.236l-136.717,79.618l-136.717,-79.618l0,-159.236l136.717,-79.618Z" style="fill:#e77bcf;stroke:#af208f;stroke-width:4.25px;stroke-linecap:round;"/></g><text x="1209.71px" y="929.032px" style="font-family:'ArialMT', 'Arial', sans-serif;font-size:66.667px;">Microservices</text></g></g></svg>