<?xml version="1.0" encoding="UTF-8" standalone="no"?><!DOCTYPE svg PUBLIC "-//W3C//DTD SVG 1.1//EN" "http://www.w3.org/Graphics/SVG/1.1/DTD/svg11.dtd"><svg width="100%" height="100%" viewBox="0 0 2068 915" version="1.1" xmlns="http://www.w3.org/2000/svg" xmlns:xlink="http://www.w3.org/1999/xlink" xml:space="preserve" xmlns:serif="http://www.serif.com/" style="fill-rule:evenodd;clip-rule:evenodd;stroke-linecap:round;stroke-linejoin:round;stroke-miterlimit:1.5;"><g id="Microservice-example" serif:id="Microservice example"><path d="M117.857,456.44l0,-1.386l275.488,0l0,-6.235l20.784,6.928l-20.784,6.928l0,-6.235l-275.488,-0Z"/><path d="M648.964,457.94l-0,-1.386l569.315,0l-0,-6.235l20.784,6.928l-20.784,6.928l-0,-6.235l-569.315,-0Z"/><path d="M1652.15,457.94l-0,-1.386l146.124,0l-0,-6.235l20.784,6.928l-20.784,6.928l-0,-6.235l-146.124,-0Z"/><path d="M1652.15,116.255l1.386,0l-0,340.992l-1.386,-0l-0,-340.992Z"/><rect x="1467.74" y="116.255" width="185.803" height="1.386"/><path d="M596.706,388.681l-0.534,-1.279l623.442,-260.058l-2.4,-5.754l21.849,-1.608l-16.515,14.396l-2.4,-5.755l-623.442,260.058Z"/><path d="M585.882,527.092l0.534,-1.279l633.733,264.458l2.401,-5.754l16.513,14.398l-21.849,-1.611l2.401,-5.754l-633.733,-264.458Z"/><g id="Services"><g id="Payment-Service" serif:id="Payment Service"><path d="M1387.26,2.125l97.99,57.065l-0,114.13l-97.99,57.066l-97.99,-57.066l-0,-114.13l97.99,-57.065Z" style="fill:#e77bcf;stroke:#af208f;stroke-width:4.25px;"/><g transform="matrix(0.716738,0,0,0.716738,96.447,-1518.77)"><text x="1711.02px" y="2273.94px" style="font-family:'ArialMT', 'Arial', sans-serif;font-size:45.833px;">Payment</text><text x="1725.04px" y="2321.27px" style="font-family:'ArialMT', 'Arial', sans-serif;font-size:45.833px;">Service</text></g><g id="grpcAPI"><rect x="1239.06" y="85.313" width="64.26" height="61.885" style="fill:#bee77b;stroke:#74a91f;stroke-width:4.17px;stroke-linecap:butt;"/><g transform="matrix(0.483478,0,0,0.483478,810.671,-890.394)"><text x="901.405px" y="2076.39px" style="font-family:'ArialMT', 'Arial', sans-serif;font-size:37.5px;">gRPC</text><text x="921.198px" y="2115.11px" style="font-family:'ArialMT', 'Arial', sans-serif;font-size:37.5px;">API</text></g></g></g><g id="Shipping-Service" serif:id="Shipping Service"><path d="M1967.26,343.116l97.99,57.066l-0,114.13l-97.99,57.065l-97.99,-57.065l-0,-114.13l97.99,-57.066Z" style="fill:#51dd4e;stroke:#24ad21;stroke-width:4.25px;"/><g transform="matrix(0.716738,0,0,0.716738,676.03,-1177.77)"><text x="1712.26px" y="2273.94px" style="font-family:'ArialMT', 'Arial', sans-serif;font-size:45.833px;">Shipping</text><text x="1725.04px" y="2321.27px" style="font-family:'ArialMT', 'Arial', sans-serif;font-size:45.833px;">Service</text></g><g id="grpcAPI1" serif:id="grpcAPI"><rect x="1819.06" y="426.304" width="64.26" height="61.885" style="fill:#bee77b;stroke:#74a91f;stroke-width:4.17px;stroke-linecap:butt;"/><g transform="matrix(0.483478,0,0,0.483478,1390.67,-549.402)"><text x="901.414px" y="2076.39px" style="font-family:'ArialMT', 'Arial', sans-serif;font-size:37.5px;">REST</text><text x="921.198px" y="2115.11px" style="font-family:'ArialMT', 'Arial', sans-serif;font-size:37.5px;">API</text></g></g></g><g id="Order-Service" serif:id="Order Service"><path d="M1387.26,684.108l97.99,57.065l-0,114.131l-97.99,57.065l-97.99,-57.065l-0,-114.131l97.99,-57.065Z" style="fill:#ff5454;stroke:#ab0000;stroke-width:4.17px;"/><g transform="matrix(0.716738,0,0,0.716738,96.0299,-836.777)"><text x="1742.88px" y="2273.94px" style="font-family:'ArialMT', 'Arial', sans-serif;font-size:45.833px;">Order</text><text x="1725.04px" y="2321.27px" style="font-family:'ArialMT', 'Arial', sans-serif;font-size:45.833px;">Service</text></g><g id="grpcAPI2" serif:id="grpcAPI"><rect x="1239.06" y="767.296" width="64.26" height="61.885" style="fill:#bee77b;stroke:#74a91f;stroke-width:4.17px;stroke-linecap:butt;"/><g transform="matrix(0.483478,0,0,0.483478,810.671,-208.411)"><text x="901.414px" y="2076.39px" style="font-family:'ArialMT', 'Arial', sans-serif;font-size:37.5px;">REST</text><text x="921.198px" y="2115.11px" style="font-family:'ArialMT', 'Arial', sans-serif;font-size:37.5px;">API</text></g></g></g><g id="User-Service" serif:id="User Service"><path d="M1387.28,341.616l97.99,57.066l0,114.13l-97.99,57.065l-97.99,-57.065l0,-114.13l97.99,-57.066Z" style="fill:#ff9254;stroke:#f46700;stroke-width:4.17px;"/><g transform="matrix(0.716738,0,0,0.716738,96.0503,-1179.48)"><text x="1753.07px" y="2273.94px" style="font-family:'ArialMT', 'Arial', sans-serif;font-size:45.833px;">User</text><text x="1725.04px" y="2321.27px" style="font-family:'ArialMT', 'Arial', sans-serif;font-size:45.833px;">Service</text></g><g id="grpcAPI3" serif:id="grpcAPI"><rect x="1239.08" y="424.804" width="64.26" height="61.885" style="fill:#bee77b;stroke:#74a91f;stroke-width:4.17px;stroke-linecap:butt;"/><g transform="matrix(0.483478,0,0,0.483478,810.691,-550.902)"><text x="901.405px" y="2076.39px" style="font-family:'ArialMT', 'Arial', sans-serif;font-size:37.5px;">gRPC</text><text x="921.198px" y="2115.11px" style="font-family:'ArialMT', 'Arial', sans-serif;font-size:37.5px;">API</text></g></g></g></g><g id="Api-Gateway" serif:id="Api Gateway"><g id="API-Gateway" serif:id="API Gateway"><path d="M562.359,349.34l92.647,53.953l-0,107.907l-92.647,53.954l-92.646,-53.954l-0,-107.907l92.646,-53.953Z" style="fill:#bef2f3;stroke:#2ed5d8;stroke-width:4.25px;"/><g transform="matrix(0.677653,0,0,0.677653,-658.061,-1088.62)"><text x="1764.52px" y="2273.94px" style="font-family:'ArialMT', 'Arial', sans-serif;font-size:45.833px;">API</text><text x="1711.02px" y="2321.27px" style="font-family:'ArialMT', 'Arial', sans-serif;font-size:45.833px;">Gateway</text></g></g><g id="Rest-API" serif:id="Rest API"><rect x="415.544" y="420.332" width="76.664" height="73.83" style="fill:#bee77b;stroke:#74a91f;stroke-width:4.17px;stroke-linecap:butt;"/><g transform="matrix(0.576801,0,0,0.576801,-95.5373,-743.708)"><text x="901.414px" y="2076.39px" style="font-family:'ArialMT', 'Arial', sans-serif;font-size:37.5px;">REST</text><text x="921.198px" y="2115.11px" style="font-family:'ArialMT', 'Arial', sans-serif;font-size:37.5px;">API</text></g></g></g><g id="Client"><rect x="2.083" y="394.272" width="119.799" height="122.949" style="fill:#ededed;stroke:#bebebe;stroke-width:4.17px;stroke-linecap:butt;"/><text x="22.99px" y="466.486px" style="font-family:'ArialMT', 'Arial', sans-serif;font-size:30.004px;">Client</text></g></g></svg>