<?xml version="1.0" encoding="UTF-8" standalone="no"?><!DOCTYPE svg PUBLIC "-//W3C//DTD SVG 1.1//EN" "http://www.w3.org/Graphics/SVG/1.1/DTD/svg11.dtd"><svg width="100%" height="100%" viewBox="0 0 2045 827" version="1.1" xmlns="http://www.w3.org/2000/svg" xmlns:xlink="http://www.w3.org/1999/xlink" xml:space="preserve" xmlns:serif="http://www.serif.com/" style="fill-rule:evenodd;clip-rule:evenodd;stroke-linejoin:round;stroke-miterlimit:2;"><g id="Regular-Application-as-Microservices" serif:id="Regular Application as Microservices"><g id="Services"><g id="Shipping-Service" serif:id="Shipping Service"><rect id="Service-BG" serif:id="Service BG" x="428.633" y="660" width="1141" height="166.25" style="fill:#ededed;"/><path d="M1569.63,660l-1141,0l0,166.25l1141,0l0,-166.25Zm-4.166,4.167l-0,157.916c-0,0 -1132.67,0 -1132.67,0c-0,0 -0,-132.553 -0,-157.916c74.836,-0 1132.67,-0 1132.67,-0l-0,-0Z" style="fill:#b3b3b3;"/><g id="Payment-Service-DB" serif:id="Payment Service DB"><rect id="DB-BG" serif:id="DB BG" x="1719.63" y="660" width="324.969" height="166.25" style="fill:#ededed;"/><path d="M2044.6,660l-324.97,-0l0,166.25l324.97,-0l-0,-166.25Zm-4.167,4.167l-0,157.916c-0,0 -316.636,0 -316.636,0c-0,0 -0,-157.916 -0,-157.916l316.636,-0Z" style="fill:#b3b3b3;"/><g id="Payment--DB" serif:id="Payment  DB"><path d="M2008.62,803.125l-0,-120l-253,-0l-0,120l253,-0Z" style="fill:#fff;"/><path d="M2008.62,803.125l-0,-120l-253,-0l-0,120l253,-0Zm-4.167,-4.167l-244.666,0c-0,0 -0,-111.666 -0,-111.666c-0,-0 244.666,-0 244.666,-0l0,111.666Z" style="fill:#cfcfcf;"/><g transform="matrix(0.818182,1.11332e-17,1.11332e-17,1,231.575,0)"><text x="1938.24px" y="752.601px" style="font-family:'ArialMT', 'Arial', sans-serif;font-size:37.5px;">Order DB</text></g></g></g><path d="M1534.63,743.818l0,-1.386l164.216,0l0,-6.235l20.784,6.928l-20.784,6.928l0,-6.235l-164.216,-0Z"/><g id="Payment-Service" serif:id="Payment Service"><path d="M619.883,743.818l0,-1.386l56.324,0l0,-6.235l20.784,6.928l-20.784,6.928l0,-6.235l-56.324,-0Z"/><path d="M931.389,743.818l-0,-1.386l82.21,0l0,-6.235l20.784,6.928l-20.784,6.928l0,-6.235l-82.21,-0Z"/><g id="Router"><path d="M619.883,803.125l0,-120l-156,-0l0,120l156,-0Z" style="fill:#fff;"/><path d="M619.883,803.125l0,-120l-156,-0l0,120l156,-0Zm-4.167,-4.167l-147.666,0c-0,0 -0,-111.666 -0,-111.666c-0,-0 147.667,-0 147.667,-0l-0.001,111.666Z" style="fill:#cfcfcf;"/><g transform="matrix(0.818182,1.11332e-17,1.11332e-17,1,-8.96712,0)"><text x="615.254px" y="756.327px" style="font-family:'ArialMT', 'Arial', sans-serif;font-size:37.5px;">Router</text></g></g><g id="Middlewares"><path d="M931.389,803.125l-0,-120l-234.398,-0l0,120l234.398,-0Z" style="fill:#fff;"/><path d="M931.389,803.125l-0,-120l-234.398,-0l0,120l234.398,-0Zm-4.167,-4.167l-226.064,0c-0,0 -0,-111.666 -0,-111.666c-0,-0 226.064,-0 226.064,-0l0,111.666Z" style="fill:#cfcfcf;"/><g transform="matrix(0.818182,1.11332e-17,1.11332e-17,1,33.4162,0)"><text x="848.362px" y="756.327px" style="font-family:'ArialMT', 'Arial', sans-serif;font-size:37.5px;">Middlewares</text></g></g><g id="Order-Module" serif:id="Order Module"><rect x="1034.38" y="683.125" width="500" height="120" style="fill:#ff5454;"/><path d="M1534.38,683.125l-500,-0l0,120l500,-0l0,-120Zm-4.166,4.167l-0,111.666c-0,0 -491.667,0 -491.667,0c-0,0 -0,-111.666 -0,-111.666c47.846,-0 491.667,-0 491.667,-0l-0,-0Z" style="fill:#ab0000;"/><text x="1182.37px" y="755.063px" style="font-family:'ArialMT', 'Arial', sans-serif;font-size:33.333px;">Order Module</text></g></g></g><g id="Orders-Service" serif:id="Orders Service"><rect id="Service-BG1" serif:id="Service BG" x="428.633" y="440" width="1141" height="166.25" style="fill:#ededed;"/><path d="M1569.63,440l-1141,0l0,166.25l1141,0l0,-166.25Zm-4.166,4.167l-0,157.916c-72.238,0 -1060.43,0 -1132.67,0c-0,0 -0,-157.916 -0,-157.916c72.237,-0 1060.43,-0 1132.67,-0l-0,-0Z" style="fill:#b3b3b3;"/><g id="Payment-Service-DB1" serif:id="Payment Service DB"><rect id="DB-BG1" serif:id="DB BG" x="1719.63" y="440" width="324.969" height="166.25" style="fill:#ededed;"/><path d="M2044.6,440l-324.97,-0l0,166.25l324.97,-0l-0,-166.25Zm-4.167,4.167l-0,157.916c-0,0 -279.06,0 -316.636,0c-0,0 -0,-157.916 -0,-157.916l316.636,-0Z" style="fill:#b3b3b3;"/><g id="Payment--DB1" serif:id="Payment  DB"><path d="M2008.62,583.125l-0,-120l-253,-0l-0,120l253,-0Z" style="fill:#fff;"/><path d="M2008.62,583.125l-0,-120l-253,-0l-0,120l253,-0Zm-4.167,-4.167l-244.666,0c-0,0 -0,-111.666 -0,-111.666c30.145,-0 214.521,-0 244.666,-0l0,111.666Z" style="fill:#cfcfcf;"/><g transform="matrix(0.818182,1.11332e-17,1.11332e-17,1,227.859,0)"><text x="1917.8px" y="532.601px" style="font-family:'ArialMT', 'Arial', sans-serif;font-size:37.5px;">Shipping DB</text></g></g></g><path d="M1534.63,523.818l0,-1.386l164.216,0l0,-6.235l20.784,6.928l-20.784,6.928l0,-6.235l-164.216,-0Z"/><g id="Payment-Service1" serif:id="Payment Service"><path d="M619.883,523.818l0,-1.386l56.324,0l0,-6.235l20.784,6.928l-20.784,6.928l0,-6.235l-56.324,-0Z"/><path d="M931.389,523.818l-0,-1.386l82.21,0l0,-6.235l20.784,6.928l-20.784,6.928l0,-6.235l-82.21,-0Z"/><g id="Router1" serif:id="Router"><path d="M619.883,583.125l0,-120l-156,-0l0,120l156,-0Z" style="fill:#fff;"/><path d="M619.883,583.125l0,-120l-156,-0l0,120l156,-0Zm-4.167,-4.167l-147.666,0c-0,0 -0,-111.666 -0,-111.666c-0,-0 147.667,-0 147.667,-0l-0.001,111.666Z" style="fill:#cfcfcf;"/><g transform="matrix(0.818182,1.11332e-17,1.11332e-17,1,-8.96712,0)"><text x="615.254px" y="536.327px" style="font-family:'ArialMT', 'Arial', sans-serif;font-size:37.5px;">Router</text></g></g><g id="Middlewares1" serif:id="Middlewares"><path d="M931.389,583.125l-0,-120l-234.398,-0l0,120l234.398,-0Z" style="fill:#fff;"/><path d="M931.389,583.125l-0,-120l-234.398,-0l0,120l234.398,-0Zm-4.167,-4.167l-226.064,0c-0,0 -0,-111.666 -0,-111.666c-0,-0 194.943,-0 226.064,-0l0,111.666Z" style="fill:#cfcfcf;"/><g transform="matrix(0.818182,1.11332e-17,1.11332e-17,1,33.4162,0)"><text x="848.362px" y="536.327px" style="font-family:'ArialMT', 'Arial', sans-serif;font-size:37.5px;">Middlewares</text></g></g><g id="Shipping-Module" serif:id="Shipping Module"><rect x="1034.38" y="463.125" width="500" height="120" style="fill:#51dd4e;"/><path d="M1534.38,463.125l-500,-0l0,120l500,-0l0,-120Zm-4.166,4.167l-0,111.666c-0,0 -491.667,0 -491.667,0c-0,0 -0,-111.666 -0,-111.666c-0,-0 491.667,-0 491.667,-0l-0,-0Z" style="fill:#24ad21;"/><text x="1160.16px" y="531.751px" style="font-family:'ArialMT', 'Arial', sans-serif;font-size:33.333px;">Shipping Module</text></g></g></g><g id="Users-Service" serif:id="Users Service"><rect id="Service-BG2" serif:id="Service BG" x="428.633" y="220" width="1141" height="166.25" style="fill:#ededed;"/><path d="M1569.63,220l-1141,0l0,166.25l1141,0l0,-166.25Zm-4.166,4.167l-0,157.916c-0,0 -1132.67,0 -1132.67,0c-0,0 -0,-157.916 -0,-157.916c-0,-0 1132.67,-0 1132.67,-0l-0,-0Z" style="fill:#b3b3b3;"/><g id="Payment-Service-DB2" serif:id="Payment Service DB"><rect id="DB-BG2" serif:id="DB BG" x="1719.63" y="220" width="324.969" height="166.25" style="fill:#ededed;"/><path d="M2044.6,220l-324.97,-0l0,166.25l324.97,-0l-0,-166.25Zm-4.167,4.167l-0,157.916c-0,0 -316.636,0 -316.636,0c-0,0 -0,-157.916 -0,-157.916l316.636,-0Z" style="fill:#b3b3b3;"/><g id="Payment--DB2" serif:id="Payment  DB"><path d="M2008.62,363.125l-0,-120l-253,-0l-0,120l253,-0Z" style="fill:#fff;"/><path d="M2008.62,363.125l-0,-120l-253,-0l-0,120l253,-0Zm-4.167,-4.167l-244.666,0c-0,0 -0,-111.666 -0,-111.666c-0,-0 244.666,-0 244.666,-0l0,111.666Z" style="fill:#cfcfcf;"/><g transform="matrix(0.818182,1.11332e-17,1.11332e-17,1,232.732,0)"><text x="1944.6px" y="312.601px" style="font-family:'ArialMT', 'Arial', sans-serif;font-size:37.5px;">User DB</text></g></g></g><path d="M1534.63,303.818l0,-1.386l164.216,0l0,-6.235l20.784,6.928l-20.784,6.928l0,-6.235l-164.216,-0Z"/><g id="Payment-Service2" serif:id="Payment Service"><path d="M619.883,303.818l0,-1.386l56.324,0l0,-6.235l20.784,6.928l-20.784,6.928l0,-6.235l-56.324,-0Z"/><path d="M931.389,303.818l-0,-1.386l82.21,0l0,-6.235l20.784,6.928l-20.784,6.928l0,-6.235l-82.21,-0Z"/><g id="Router2" serif:id="Router"><path d="M619.883,363.125l0,-120l-156,-0l0,120l156,-0Z" style="fill:#fff;"/><path d="M619.883,363.125l0,-120l-156,-0l0,120l156,-0Zm-4.167,-4.167l-147.666,0c-0,0 -0,-111.666 -0,-111.666c-0,-0 147.667,-0 147.667,-0l-0.001,111.666Z" style="fill:#cfcfcf;"/><g transform="matrix(0.818182,1.11332e-17,1.11332e-17,1,-8.96712,0)"><text x="615.254px" y="316.327px" style="font-family:'ArialMT', 'Arial', sans-serif;font-size:37.5px;">Router</text></g></g><g id="Middlewares2" serif:id="Middlewares"><path d="M931.389,363.125l-0,-120l-234.398,-0l0,120l234.398,-0Z" style="fill:#fff;"/><path d="M931.389,363.125l-0,-120l-234.398,-0l0,120l234.398,-0Zm-4.167,-4.167l-226.064,0c-0,0 -0,-111.666 -0,-111.666c-0,-0 226.064,-0 226.064,-0l0,111.666Z" style="fill:#cfcfcf;"/><g transform="matrix(0.818182,1.11332e-17,1.11332e-17,1,33.4162,0)"><text x="848.362px" y="316.327px" style="font-family:'ArialMT', 'Arial', sans-serif;font-size:37.5px;">Middlewares</text></g></g><g id="User-Module" serif:id="User Module"><rect x="1034.38" y="243.125" width="500" height="120" style="fill:#ff9254;"/><path d="M1534.38,243.125l-500,-0l0,120l500,0l0,-120Zm-4.166,4.167l-0,111.666c-45.341,0 -446.327,0 -491.667,0c-0,0 -0,-111.666 -0,-111.666c45.34,-0 446.326,-0 491.667,-0l-0,-0Z" style="fill:#f46700;"/><text x="1189.28px" y="314.852px" style="font-family:'ArialMT', 'Arial', sans-serif;font-size:33.333px;">User Module</text></g></g></g><g id="Payments-Service" serif:id="Payments Service"><rect id="Service-BG3" serif:id="Service BG" x="428.633" y="0" width="1141" height="166.25" style="fill:#ededed;"/><path d="M1569.63,0l-1141,0l0,166.25l1141,-0l0,-166.25Zm-4.166,4.167l-0,157.916c-72.238,0 -1060.43,0 -1132.67,0c-0,0 -0,-157.916 -0,-157.916c-0,-0 1132.67,-0 1132.67,-0l-0,-0Z" style="fill:#b3b3b3;"/><g id="Payment-Service-DB3" serif:id="Payment Service DB"><rect id="DB-BG3" serif:id="DB BG" x="1719.63" y="-0" width="324.969" height="166.25" style="fill:#ededed;"/><path d="M2044.6,-0l-324.97,-0l0,166.25l324.97,-0l-0,-166.25Zm-4.167,4.167l-0,157.916c-0,0 -316.636,0 -316.636,0c-0,0 -0,-157.916 -0,-157.916l316.636,-0Z" style="fill:#b3b3b3;"/><g id="Payment--DB3" serif:id="Payment  DB"><path d="M2008.62,143.125l-0,-120l-253,-0l-0,120l253,-0Z" style="fill:#fff;"/><path d="M2008.62,143.125l-0,-120l-253,-0l-0,120l253,-0Zm-4.167,-4.167l-244.666,0c-0,0 -0,-90.947 -0,-111.666c-0,-0 244.666,-0 244.666,-0l0,111.666Z" style="fill:#cfcfcf;"/><g transform="matrix(0.818182,1.11332e-17,1.11332e-17,1,227.618,0)"><text x="1916.47px" y="92.601px" style="font-family:'ArialMT', 'Arial', sans-serif;font-size:37.5px;">Payment DB</text></g></g></g><path d="M1534.63,83.818l0,-1.386l164.216,0l0,-6.235l20.784,6.928l-20.784,6.928l0,-6.235l-164.216,-0Z"/><g id="Payment-Service3" serif:id="Payment Service"><path d="M619.883,83.818l0,-1.386l56.324,0l0,-6.235l20.784,6.928l-20.784,6.928l0,-6.235l-56.324,-0Z"/><path d="M931.389,83.818l-0,-1.386l82.21,0l0,-6.235l20.784,6.928l-20.784,6.928l0,-6.235l-82.21,-0Z"/><g id="Router3" serif:id="Router"><path d="M619.883,143.125l0,-120l-156,-0l0,120l156,-0Z" style="fill:#fff;"/><path d="M619.883,143.125l0,-120l-156,-0l0,120l156,-0Zm-4.167,-4.167l-147.666,0c-0,0 -0,-111.666 -0,-111.666c-0,-0 147.667,-0 147.667,-0l-0.001,111.666Z" style="fill:#cfcfcf;"/><g transform="matrix(0.818182,1.11332e-17,1.11332e-17,1,-8.96712,0)"><text x="615.254px" y="96.327px" style="font-family:'ArialMT', 'Arial', sans-serif;font-size:37.5px;">Router</text></g></g><g id="Middlewares3" serif:id="Middlewares"><path d="M931.389,143.125l-0,-120l-234.398,-0l0,120l234.398,-0Z" style="fill:#fff;"/><path d="M931.389,143.125l-0,-120l-234.398,-0l0,120l234.398,-0Zm-4.167,-4.167l-226.064,0c-0,0 -0,-90.947 -0,-111.666c-0,-0 194.943,-0 226.064,-0l0,111.666Z" style="fill:#cfcfcf;"/><g transform="matrix(0.818182,1.11332e-17,1.11332e-17,1,33.4162,0)"><text x="848.362px" y="96.327px" style="font-family:'ArialMT', 'Arial', sans-serif;font-size:37.5px;">Middlewares</text></g></g><g id="Payment-Module" serif:id="Payment Module"><rect x="1034.38" y="23.125" width="500" height="120" style="fill:#e77bcf;"/><path d="M1534.38,23.125l-500,-0l0,120l500,-0l0,-120Zm-4.166,4.167l-0,111.666c-0,0 -491.667,0 -491.667,0c-0,0 -0,-111.666 -0,-111.666c47.846,-0 491.667,-0 491.667,-0l-0,-0Z" style="fill:#af208f;"/><text x="1158.72px" y="91.548px" style="font-family:'ArialMT', 'Arial', sans-serif;font-size:33.333px;">Payment Module</text></g></g></g></g><g id="Request"><rect x="0" y="344.308" width="194" height="137.634" style="fill:#7be6e7;"/><path d="M194,344.308l-194,-0l0,137.634l194,0l0,-137.634Zm-4.167,4.167l0,129.3c0,0 -185.666,0 -185.666,0c-0,0 -0,-129.3 -0,-129.3c-0,-0 185.666,-0 185.666,-0l0,-0Z" style="fill:#23bebf;"/><text x="33.735px" y="421.743px" style="font-family:'ArialMT', 'Arial', sans-serif;font-size:33.333px;">Request</text></g><g id="Arrows"><path d="M329.266,303.818l0,-1.386l79.216,0l0,-6.235l20.784,6.928l-20.784,6.928l0,-6.235l-79.216,-0Z"/><rect x="194.266" y="404.807" width="135" height="1.386"/><path d="M329.633,743.818l-1.385,-0l-0,-661.386l1.385,0l0,661.386Z"/><path d="M329.266,83.818l0,-1.386l79.216,0l0,-6.235l20.784,6.928l-20.784,6.928l0,-6.235l-79.216,-0Z"/><path d="M328.633,743.818l0,-1.386l79.216,0l0,-6.235l20.784,6.928l-20.784,6.928l0,-6.235l-79.216,-0Z"/><path d="M328.633,523.818l0,-1.386l79.216,0l0,-6.235l20.784,6.928l-20.784,6.928l0,-6.235l-79.216,-0Z"/></g></g></svg>