<?xml version="1.0" encoding="UTF-8" standalone="no"?><!DOCTYPE svg PUBLIC "-//W3C//DTD SVG 1.1//EN" "http://www.w3.org/Graphics/SVG/1.1/DTD/svg11.dtd"><svg width="100%" height="100%" viewBox="0 0 2049 837" version="1.1" xmlns="http://www.w3.org/2000/svg" xmlns:xlink="http://www.w3.org/1999/xlink" xml:space="preserve" xmlns:serif="http://www.serif.com/" style="fill-rule:evenodd;clip-rule:evenodd;stroke-linejoin:round;stroke-miterlimit:2;"><g id="Regular-Application" serif:id="Regular Application"><rect id="Application-BG" serif:id="Application BG" x="399" y="61.773" width="1181" height="774.5" style="fill:#ededed;"/><path d="M1580,61.773l-1181,-0l-0,774.5l1181,-0l-0,-774.5Zm-4.167,4.166l0,766.167c0,-0 -1172.67,-0 -1172.67,-0c-0,-0 -0,-705.384 -0,-766.167l1172.67,0Z" style="fill:#b3b3b3;"/><g id="Database"><rect id="Database-BG" serif:id="Database BG" x="1718" y="61.773" width="331" height="774.5" style="fill:#ededed;"/><path d="M2049,61.773l-331,-0l0,774.5l331,-0l0,-774.5Zm-4.167,4.166l0,766.167c0,-0 -284.695,-0 -322.666,-0c-0,-0 -0,-766.167 -0,-766.167l322.666,0Z" style="fill:#b3b3b3;"/><g id="Tables"><g id="Payments-Table" serif:id="Payments Table"><rect x="1768.5" y="109.023" width="230" height="140" style="fill:#fff;"/><path d="M1998.5,109.023l-230,-0l0,140l230,-0l0,-140Zm-4.167,4.166l0,131.667c0,-0 -221.666,-0 -221.666,-0c-0,-0 -0,-131.667 -0,-131.667c-0,0 221.666,0 221.666,0l0,0Z" style="fill:#cfcfcf;"/><g transform="matrix(0.818182,1.11332e-17,1.11332e-17,1,1299.08,-2999.21)"><text x="630.167px" y="3172.07px" style="font-family:'ArialMT', 'Arial', sans-serif;font-size:37.5px;">Payments</text><text x="668.711px" y="3210.8px" style="font-family:'ArialMT', 'Arial', sans-serif;font-size:37.5px;">T<tspan x="687.461px 708.317px " y="3210.8px 3210.8px ">ab</tspan>le</text></g></g><g id="Users-Table" serif:id="Users Table"><rect x="1768.5" y="289.023" width="230" height="140" style="fill:#fff;"/><path d="M1998.5,289.023l-230,-0l0,140l230,-0l0,-140Zm-4.167,4.166l0,131.667c0,-0 -221.666,-0 -221.666,-0c-0,-0 -0,-131.667 -0,-131.667c-0,0 221.666,0 221.666,0l0,0Z" style="fill:#cfcfcf;"/><g transform="matrix(0.818182,1.11332e-17,1.11332e-17,1,1292.72,-2818.97)"><text x="672.913px" y="3172.07px" style="font-family:'ArialMT', 'Arial', sans-serif;font-size:37.5px;">Users</text><text x="677.051px" y="3210.8px" style="font-family:'ArialMT', 'Arial', sans-serif;font-size:37.5px;">T<tspan x="695.801px 716.657px " y="3210.8px 3210.8px ">ab</tspan>le</text></g></g><g id="Orders-Table" serif:id="Orders Table"><rect x="1768.5" y="469.023" width="230" height="140" style="fill:#fff;"/><path d="M1998.5,469.023l-230,-0l0,140l230,-0l0,-140Zm-4.167,4.166l0,131.667c0,-0 -221.666,-0 -221.666,-0c-0,-0 -0,-131.667 -0,-131.667c-0,0 221.666,0 221.666,0l0,0Z" style="fill:#cfcfcf;"/><g transform="matrix(0.818182,1.11332e-17,1.11332e-17,1,1267.18,-2638.98)"><text x="695.856px" y="3172.07px" style="font-family:'ArialMT', 'Arial', sans-serif;font-size:37.5px;">Orders</text><text x="708.335px" y="3210.8px" style="font-family:'ArialMT', 'Arial', sans-serif;font-size:37.5px;">T<tspan x="727.085px 747.941px " y="3210.8px 3210.8px ">ab</tspan>le</text></g></g><g id="Shipments-Table" serif:id="Shipments Table"><rect x="1768.5" y="649.023" width="230" height="140" style="fill:#fff;"/><path d="M1998.5,649.023l-230,-0l0,140l230,-0l0,-140Zm-4.167,4.166l0,131.667c0,-0 -221.666,-0 -221.666,-0c-0,-0 -0,-131.667 -0,-131.667c-0,0 221.666,0 221.666,0l0,0Z" style="fill:#cfcfcf;"/><g transform="matrix(0.818182,1.11332e-17,1.11332e-17,1,1266.69,-2459.21)"><text x="664.573px" y="3172.07px" style="font-family:'ArialMT', 'Arial', sans-serif;font-size:37.5px;">Shipments</text><text x="708.335px" y="3210.8px" style="font-family:'ArialMT', 'Arial', sans-serif;font-size:37.5px;">T<tspan x="727.085px 747.941px " y="3210.8px 3210.8px ">ab</tspan>le</text></g></g></g></g><g id="Router"><rect x="451.108" y="134.023" width="156.079" height="630" style="fill:#fff;"/><path d="M607.187,134.023l-156.079,-0l0,630l156.079,-0l0,-630Zm-4.166,4.166l-0,621.667c-0,-0 -147.746,-0 -147.746,-0c-0,-0 -0,-567.339 -0,-621.667l147.746,0Z" style="fill:#cfcfcf;"/><g transform="matrix(6.12323e-17,-0.818182,1,5.00992e-17,-3669.95,-1111.37)"><text x="-1965.15px" y="4212.3px" style="font-family:'ArialMT', 'Arial', sans-serif;font-size:37.5px;">Router</text></g></g><g id="Middlewares"><rect x="707.187" y="134.023" width="156.079" height="630" style="fill:#fff;"/><path d="M863.266,134.023l-156.079,-0l0,630l156.079,-0l0,-630Zm-4.166,4.166l-0,621.667c-0,-0 -147.746,-0 -147.746,-0c-0,-0 -0,-621.667 -0,-621.667l147.746,0Z" style="fill:#cfcfcf;"/><g transform="matrix(6.12323e-17,-0.818182,1,5.00992e-17,-3453.07,-862.647)"><text x="-1709.07px" y="4251.49px" style="font-family:'ArialMT', 'Arial', sans-serif;font-size:37.5px;">Middlewares</text></g></g><text x="809.086px" y="26.843px" style="font-family:'ArialMT', 'Arial', sans-serif;font-size:37.5px;">Monolithic <tspan x="986.259px 1011.27px " y="26.843px 26.843px ">Ap</tspan>plication</text><text x="1798.44px" y="30.35px" style="font-family:'ArialMT', 'Arial', sans-serif;font-size:37.5px;">Database</text><g id="Request"><rect x="0" y="380.205" width="194" height="137.634" style="fill:#7be6e7;"/><path d="M194,380.205l-194,0l0,137.635l194,-0l0,-137.635Zm-4.167,4.167l0,129.301c0,-0 -185.666,-0 -185.666,-0c-0,-0 -0,-129.301 -0,-129.301c-0,0 185.666,0 185.666,0l0,0Z" style="fill:#23bebf;"/><text x="33.735px" y="457.641px" style="font-family:'ArialMT', 'Arial', sans-serif;font-size:33.333px;">Request</text></g><g id="Arrows"><path d="M194,449.715l-0,-1.385l236.324,-0l0,-6.236l20.784,6.929l-20.784,6.928l0,-6.236l-236.324,0Z"/><path d="M607.187,449.715l0,-1.385l79.216,-0l0,-6.236l20.784,6.929l-20.784,6.928l0,-6.236l-79.216,0Z"/><path d="M913.266,364.715l0,-1.385l79.216,-0l0,-6.236l20.784,6.929l-20.784,6.928l0,-6.236l-79.216,0Z"/><rect x="863.266" y="448.33" width="51.386" height="1.386"/><path d="M914.652,704.715l-1.386,0l0,-511.385l1.386,0l-0,511.385Z"/><path d="M913.266,194.715l0,-1.385l79.216,-0l0,-6.236l20.784,6.929l-20.784,6.928l0,-6.236l-79.216,0Z"/><path d="M913.266,704.715l0,-1.385l79.216,-0l0,-6.236l20.784,6.929l-20.784,6.928l0,-6.236l-79.216,0Z"/><path d="M913.266,534.715l0,-1.385l79.216,-0l0,-6.236l20.784,6.929l-20.784,6.928l0,-6.236l-79.216,0Z"/><path d="M1513.27,364.715l0,-1.385l183.95,-0l-0,-6.236l20.784,6.929l-20.784,6.928l-0,-6.236l-183.95,0Z"/><path d="M1513.27,194.715l0,-1.385l183.95,-0l-0,-6.236l20.784,6.929l-20.784,6.928l-0,-6.236l-183.95,0Z"/><path d="M1513.27,704.715l0,-1.385l183.95,-0l-0,-6.236l20.784,6.929l-20.784,6.928l-0,-6.236l-183.95,0Z"/><path d="M1513.27,534.715l0,-1.385l183.95,-0l-0,-6.236l20.784,6.929l-20.784,6.928l-0,-6.236l-183.95,0Z"/></g><g id="Modules"><g id="Payment-Module" serif:id="Payment Module"><rect x="1013.27" y="134.023" width="500" height="120" style="fill:#e77bcf;"/><path d="M1513.27,134.023l-500,-0l0,120l500,-0l0,-120Zm-4.166,4.166l-0,111.667c-0,-0 -491.667,-0 -491.667,-0c0,-0 0,-111.667 0,-111.667c0,0 491.667,0 491.667,0l-0,0Z" style="fill:#af208f;"/><text x="1137.61px" y="202.445px" style="font-family:'ArialMT', 'Arial', sans-serif;font-size:33.333px;">Payment Module</text></g><g id="User-Module" serif:id="User Module"><rect x="1013.27" y="304.023" width="500" height="120" style="fill:#ff9254;"/><path d="M1513.27,304.023l-500,-0l0,120l500,-0l0,-120Zm-4.166,4.166l-0,111.667c-0,-0 -491.667,-0 -491.667,-0c0,-0 0,-111.667 0,-111.667c0,0 491.667,0 491.667,0l-0,0Z" style="fill:#f46700;"/><text x="1168.16px" y="375.749px" style="font-family:'ArialMT', 'Arial', sans-serif;font-size:33.333px;">User Module</text></g><g id="Order-Module" serif:id="Order Module"><rect x="1013.27" y="474.023" width="500" height="120" style="fill:#ff5454;"/><path d="M1513.27,474.023l-500,-0l0,120l500,-0l0,-120Zm-4.166,4.166l-0,111.667c-0,-0 -491.667,-0 -491.667,-0c0,-0 0,-111.667 0,-111.667c47.847,0 491.667,0 491.667,0l-0,0Z" style="fill:#ab0000;"/><text x="1161.26px" y="545.961px" style="font-family:'ArialMT', 'Arial', sans-serif;font-size:33.333px;">Order Module</text></g><g id="Shipping-Module" serif:id="Shipping Module"><rect x="1013.27" y="644.023" width="500" height="120" style="fill:#51dd4e;"/><path d="M1513.27,644.023l-500,-0l0,120l500,-0l0,-120Zm-4.166,4.166l-0,111.667c-0,-0 -443.82,-0 -491.667,-0c0,-0 0,-111.667 0,-111.667c45.34,0 446.326,0 491.667,0l-0,0Z" style="fill:#24ad21;"/><text x="1139.05px" y="712.649px" style="font-family:'ArialMT', 'Arial', sans-serif;font-size:33.333px;">Shipping Module</text></g></g></g></svg>