<?xml version="1.0" encoding="UTF-8" standalone="no"?><!DOCTYPE svg PUBLIC "-//W3C//DTD SVG 1.1//EN" "http://www.w3.org/Graphics/SVG/1.1/DTD/svg11.dtd"><svg width="100%" height="100%" viewBox="0 0 1994 893" version="1.1" xmlns="http://www.w3.org/2000/svg" xmlns:xlink="http://www.w3.org/1999/xlink" xml:space="preserve" xmlns:serif="http://www.serif.com/" style="fill-rule:evenodd;clip-rule:evenodd;stroke-linecap:round;stroke-linejoin:round;stroke-miterlimit:1.5;"><g id="Orchestration"><path d="M191.659,415.615l-0,-2.193l138.171,-0l0,-9.867l32.89,10.963l-32.89,10.964l0,-9.867l-138.171,-0Z"/><path d="M362.72,451.401l0,2.192l-138.172,0l0,9.867l-32.889,-10.963l32.889,-10.963l0,9.867l138.172,-0Z"/><path d="M734.334,414.823l0,-2.192l138.172,-0l-0,-9.867l32.89,10.963l-32.89,10.963l-0,-9.867l-138.172,0Z"/><path d="M921.22,442.583l0,2.193l-138.171,0l-0,9.867l-32.89,-10.963l32.89,-10.964l-0,9.867l138.171,0Z"/><path d="M1226.55,316.807l-0.921,-1.99l299.883,-138.888l-4.147,-8.953l34.452,-3.874l-25.237,23.77l-4.147,-8.953l-299.883,138.888Z"/><path d="M1555.3,193.654l0.912,1.994l-253.728,116.125l4.106,8.972l-34.469,3.718l25.344,-23.656l4.107,8.972l253.728,-116.125Z"/><path d="M1255.24,522.152l1.091,-1.902l271.494,155.694l4.909,-8.559l23.077,25.872l-33.985,-6.851l4.908,-8.56l-271.494,-155.694Z"/><path d="M1555.82,721.988l-1.096,1.899l-278.44,-160.757l-4.934,8.545l-23.002,-25.94l33.965,6.951l-4.933,8.545l278.44,160.757Z"/><g id="Services"><g id="Orchestration-Service" serif:id="Orchestration Service"><path d="M1140.08,247.57l155.064,90.303l0,180.606l-155.064,90.303l-155.064,-90.303l-0,-180.606l155.064,-90.303Z" style="fill:#e77bcf;stroke:#af208f;stroke-width:4.25px;"/><g transform="matrix(1.1342,0,0,1.1342,-902.725,-2157.19)"><text x="1696.77px" y="2273.94px" style="font-family:'ArialMT', 'Arial', sans-serif;font-size:34.88px;">Orchestration</text><text x="1743.3px" y="2309.96px" style="font-family:'ArialMT', 'Arial', sans-serif;font-size:34.88px;">Service</text></g><g id="grpcAPI"><rect x="905.574" y="379.211" width="101.689" height="97.93" style="fill:#bee77b;stroke:#74a91f;stroke-width:4.17px;stroke-linecap:butt;"/><g transform="matrix(0.76508,0,0,0.76508,227.665,-1164.8)"><text x="901.405px" y="2076.39px" style="font-family:'ArialMT', 'Arial', sans-serif;font-size:37.5px;">gRPC</text><text x="921.198px" y="2115.11px" style="font-family:'ArialMT', 'Arial', sans-serif;font-size:37.5px;">API</text></g></g></g><g id="Shipping-Service" serif:id="Shipping Service"><path d="M1790.33,529.039l155.064,90.303l-0,180.606l-155.064,90.303l-155.065,-90.303l0,-180.606l155.065,-90.303Z" style="fill:#51dd4e;stroke:#24ad21;stroke-width:4.25px;"/><text x="1682.18px" y="728.251px" style="font-family:'ArialMT', 'Arial', sans-serif;font-size:51.984px;">Service 2</text><g id="grpcAPI1" serif:id="grpcAPI"><rect x="1555.82" y="660.68" width="101.689" height="97.93" style="fill:#bee77b;stroke:#74a91f;stroke-width:4.17px;stroke-linecap:butt;"/><g transform="matrix(0.76508,0,0,0.76508,877.906,-883.327)"><text x="901.414px" y="2076.39px" style="font-family:'ArialMT', 'Arial', sans-serif;font-size:37.5px;">REST</text><text x="921.198px" y="2115.11px" style="font-family:'ArialMT', 'Arial', sans-serif;font-size:37.5px;">API</text></g></g></g><g id="User-Service" serif:id="User Service"><path d="M1790.33,2.083l155.064,90.303l-0,180.606l-155.064,90.303l-155.065,-90.303l0,-180.606l155.065,-90.303Z" style="fill:#ff9254;stroke:#f46700;stroke-width:4.17px;"/><text x="1685.58px" y="201.295px" style="font-family:'ArialMT', 'Arial', sans-serif;font-size:51.984px;">Service 1</text><g id="grpcAPI2" serif:id="grpcAPI"><rect x="1555.82" y="133.724" width="101.689" height="97.93" style="fill:#bee77b;stroke:#74a91f;stroke-width:4.17px;stroke-linecap:butt;"/><g transform="matrix(0.76508,0,0,0.76508,877.906,-1410.28)"><text x="901.405px" y="2076.39px" style="font-family:'ArialMT', 'Arial', sans-serif;font-size:37.5px;">gRPC</text><text x="921.198px" y="2115.11px" style="font-family:'ArialMT', 'Arial', sans-serif;font-size:37.5px;">API</text></g></g></g></g><g id="Api-Gateway" serif:id="Api Gateway"><g id="API-Gateway" serif:id="API Gateway"><path d="M598.869,261.959l146.609,85.379l-0,170.757l-146.609,85.379l-146.608,-85.379l0,-170.757l146.608,-85.379Z" style="fill:#bef2f3;stroke:#2ed5d8;stroke-width:4.25px;"/><g transform="matrix(1.07235,0,0,1.07235,-1333.97,-2013.54)"><text x="1764.52px" y="2273.94px" style="font-family:'ArialMT', 'Arial', sans-serif;font-size:45.833px;">API</text><text x="1711.02px" y="2321.27px" style="font-family:'ArialMT', 'Arial', sans-serif;font-size:45.833px;">Gateway</text></g></g><g id="Rest-API" serif:id="Rest API"><rect x="364.959" y="374.3" width="121.317" height="116.833" style="fill:#bee77b;stroke:#74a91f;stroke-width:4.17px;stroke-linecap:butt;"/><g transform="matrix(0.912758,0,0,0.912758,-443.801,-1467.73)"><text x="901.414px" y="2076.39px" style="font-family:'ArialMT', 'Arial', sans-serif;font-size:37.5px;">REST</text><text x="921.198px" y="2115.11px" style="font-family:'ArialMT', 'Arial', sans-serif;font-size:37.5px;">API</text></g></g></g><g id="Client"><rect x="2.083" y="335.436" width="189.575" height="194.561" style="fill:#ededed;stroke:#bebebe;stroke-width:4.17px;stroke-linecap:butt;"/><text x="35.168px" y="449.71px" style="font-family:'ArialMT', 'Arial', sans-serif;font-size:47.48px;">Client</text></g><g id="Database"><path d="M1897.22,200.498l96.343,0l0,73.571c0,9.829 -21.585,17.809 -48.171,17.809c-26.587,0 -48.172,-7.98 -48.172,-17.809l0,-73.571Z" style="fill:#d0f562;"/><path d="M1897.22,200.498l96.343,0l0,73.571c0,9.829 -21.585,17.809 -48.171,17.809c-26.587,0 -48.172,-7.98 -48.172,-17.809l0,-73.571Zm4.167,4.167l88.01,-0c-0,-0 -0,69.404 -0,69.404c-0,1.011 -0.566,1.928 -1.386,2.837c-1.304,1.447 -3.233,2.753 -5.623,3.958c-8.342,4.206 -21.821,6.848 -36.996,6.848c-15.175,-0 -28.655,-2.642 -36.996,-6.848c-2.391,-1.205 -4.32,-2.511 -5.623,-3.958c-0.82,-0.909 -1.386,-1.826 -1.386,-2.837l-0,-69.404Z" style="fill:#9bcb0d;"/><ellipse cx="1945.39" cy="200.498" rx="48.172" ry="17.809" style="fill:#d0f562;"/><path d="M1945.39,182.689c26.586,0 48.171,7.98 48.171,17.809c0,9.829 -21.585,17.809 -48.171,17.809c-26.587,0 -48.172,-7.98 -48.172,-17.809c0,-9.829 21.585,-17.809 48.172,-17.809Zm-0,4.167c15.175,-0 28.654,2.642 36.996,6.848c2.39,1.205 4.319,2.511 5.623,3.957c0.82,0.91 1.386,1.826 1.386,2.837c-0,1.011 -0.566,1.928 -1.386,2.837c-1.304,1.447 -3.233,2.753 -5.623,3.958c-8.342,4.206 -21.821,6.847 -36.996,6.847c-15.175,0 -28.655,-2.641 -36.996,-6.847c-2.391,-1.205 -4.32,-2.511 -5.623,-3.958c-0.82,-0.909 -1.386,-1.826 -1.386,-2.837c-0,-1.011 0.566,-1.927 1.386,-2.837c1.303,-1.446 3.232,-2.752 5.623,-3.957c8.341,-4.206 21.821,-6.848 36.996,-6.848Z" style="fill:#9bcb0d;"/></g><g id="Database1" serif:id="Database"><path d="M1897.22,727.454l96.343,0l0,73.571c0,9.829 -21.585,17.809 -48.171,17.809c-26.587,0 -48.172,-7.98 -48.172,-17.809l0,-73.571Z" style="fill:#d0f562;"/><path d="M1897.22,727.454l96.343,0l0,73.571c0,9.829 -21.585,17.809 -48.171,17.809c-26.587,0 -48.172,-7.98 -48.172,-17.809l0,-73.571Zm4.167,4.167l88.01,-0c-0,-0 -0,69.404 -0,69.404c-0,1.011 -0.566,1.928 -1.386,2.837c-1.304,1.447 -3.233,2.753 -5.623,3.958c-8.342,4.206 -21.821,6.848 -36.996,6.848c-15.175,-0 -28.655,-2.642 -36.996,-6.848c-2.391,-1.205 -4.32,-2.511 -5.623,-3.958c-0.82,-0.909 -1.386,-1.826 -1.386,-2.837l-0,-69.404Z" style="fill:#9bcb0d;"/><ellipse cx="1945.39" cy="727.454" rx="48.172" ry="17.809" style="fill:#d0f562;"/><path d="M1945.39,709.645c26.586,0 48.171,7.98 48.171,17.809c0,9.829 -21.585,17.809 -48.171,17.809c-26.587,-0 -48.172,-7.98 -48.172,-17.809c0,-9.829 21.585,-17.809 48.172,-17.809Zm-0,4.167c15.175,-0 28.654,2.642 36.996,6.848c2.39,1.205 4.319,2.511 5.623,3.957c0.82,0.91 1.386,1.826 1.386,2.837c-0,1.011 -0.566,1.927 -1.386,2.837c-1.304,1.446 -3.233,2.752 -5.623,3.957c-8.342,4.206 -21.821,6.848 -36.996,6.848c-15.175,0 -28.655,-2.642 -36.996,-6.848c-2.391,-1.205 -4.32,-2.511 -5.623,-3.957c-0.82,-0.91 -1.386,-1.826 -1.386,-2.837c-0,-1.011 0.566,-1.927 1.386,-2.837c1.303,-1.446 3.232,-2.752 5.623,-3.957c8.341,-4.206 21.821,-6.848 36.996,-6.848Z" style="fill:#9bcb0d;"/></g></g></svg>