<?xml version="1.0" encoding="UTF-8" standalone="no"?><!DOCTYPE svg PUBLIC "-//W3C//DTD SVG 1.1//EN" "http://www.w3.org/Graphics/SVG/1.1/DTD/svg11.dtd"><svg width="100%" height="100%" viewBox="0 0 1184 351" version="1.1" xmlns="http://www.w3.org/2000/svg" xmlns:xlink="http://www.w3.org/1999/xlink" xml:space="preserve" xmlns:serif="http://www.serif.com/" style="fill-rule:evenodd;clip-rule:evenodd;stroke-linejoin:round;stroke-miterlimit:2;"><g id="Replicas"><path d="M1183.28,17.55c-0,-9.686 -7.864,-17.55 -17.55,-17.55l-1148.18,0c-9.686,0 -17.55,7.864 -17.55,17.55l-0,315.9c-0,9.686 7.864,17.55 17.55,17.55l1148.18,-0c9.686,-0 17.55,-7.864 17.55,-17.55l-0,-315.9Zm-4.167,-0l-0,315.9c-0,7.386 -5.997,13.383 -13.383,13.383l-1148.18,0c-7.386,0 -13.383,-5.997 -13.383,-13.383l-0,-315.9c-0,-7.386 5.997,-13.383 13.383,-13.383l1148.18,-0c7.386,-0 13.383,5.997 13.383,13.383Z" style="fill:#383838;"/><g transform="matrix(1,0,0,1,-1666.85,-11817.2)"><text x="1695.23px" y="11865.4px" style="font-family:'Arial-BoldMT', 'Arial', sans-serif;font-weight:700;font-size:25px;fill:#383838;">Deplyment: foo</text><text x="1695.23px" y="11917px" style="font-family:'ArialMT', 'Arial', sans-serif;font-size:25px;fill:#383838;">replicas: 3</text><text x="1695.23px" y="11942.8px" style="font-family:'ArialMT', 'Arial', sans-serif;font-size:25px;fill:#383838;">pod:</text><text x="1723.01px" y="11968.6px" style="font-family:'ArialMT', 'Arial', sans-serif;font-size:25px;fill:#383838;">name: foo-app</text><text x="1723.01px" y="11994.5px" style="font-family:'ArialMT', 'Arial', sans-serif;font-size:25px;fill:#383838;">image: foo:latest</text></g><g id="Pod"><path d="M389.061,234.1c0,-2.346 -1.904,-4.25 -4.25,-4.25l-213.5,-0c-2.345,-0 -4.25,1.904 -4.25,4.25l0,76.5c0,2.345 1.905,4.25 4.25,4.25l213.5,-0c2.346,-0 4.25,-1.905 4.25,-4.25l0,-76.5Zm-4.167,-0l0,76.5c0,0.046 -0.037,0.083 -0.083,0.083l-213.5,-0c-0.046,-0 -0.083,-0.037 -0.083,-0.083l-0,-76.5c-0,-0.046 0.037,-0.084 0.083,-0.084l213.5,0c0.046,0 0.083,0.038 0.083,0.084Z" style="fill:#383838;"/><g id="Pod1" serif:id="Pod"><rect x="26.061" y="229.85" width="146" height="85" style="fill:#383838;"/><text x="76.759px" y="281.151px" style="font-family:'ArialMT', 'Arial', sans-serif;font-size:25px;fill:#fff;">Pod</text></g><text x="236.051px" y="278.966px" style="font-family:'ArialMT', 'Arial', sans-serif;font-size:25px;fill:#383838;">foo-app</text></g><g id="Pod2" serif:id="Pod"><path d="M770.061,234.1c0,-2.346 -1.904,-4.25 -4.25,-4.25l-213.5,-0c-2.345,-0 -4.25,1.904 -4.25,4.25l0,76.5c0,2.345 1.905,4.25 4.25,4.25l213.5,-0c2.346,-0 4.25,-1.905 4.25,-4.25l0,-76.5Zm-4.167,-0l0,76.5c0,0.046 -0.037,0.083 -0.083,0.083l-213.5,-0c-0.046,-0 -0.083,-0.037 -0.083,-0.083l-0,-76.5c-0,-0.046 0.037,-0.084 0.083,-0.084l213.5,0c0.046,0 0.083,0.038 0.083,0.084Z" style="fill:#383838;"/><g id="Pod3" serif:id="Pod"><rect x="407.061" y="229.85" width="146" height="85" style="fill:#383838;"/><text x="457.759px" y="281.151px" style="font-family:'ArialMT', 'Arial', sans-serif;font-size:25px;fill:#fff;">Pod</text></g><text x="617.051px" y="278.966px" style="font-family:'ArialMT', 'Arial', sans-serif;font-size:25px;fill:#383838;">foo-app</text></g><g id="Pod4" serif:id="Pod"><path d="M1151.06,234.1c0,-2.346 -1.904,-4.25 -4.25,-4.25l-213.5,-0c-2.345,-0 -4.25,1.904 -4.25,4.25l0,76.5c0,2.345 1.905,4.25 4.25,4.25l213.5,-0c2.346,-0 4.25,-1.905 4.25,-4.25l0,-76.5Zm-4.167,-0l0,76.5c0,0.046 -0.037,0.083 -0.083,0.083l-213.5,-0c-0.046,-0 -0.083,-0.037 -0.083,-0.083c-0,-0 -0,-76.5 -0,-76.5c-0,-0.046 0.037,-0.084 0.083,-0.084l213.5,0c0.046,0 0.083,0.038 0.083,0.084Z" style="fill:#383838;"/><g id="Pod5" serif:id="Pod"><rect x="788.061" y="229.85" width="146" height="85" style="fill:#383838;"/><text x="838.759px" y="281.151px" style="font-family:'ArialMT', 'Arial', sans-serif;font-size:25px;fill:#fff;">Pod</text></g><text x="998.051px" y="278.966px" style="font-family:'ArialMT', 'Arial', sans-serif;font-size:25px;fill:#383838;">foo-app</text></g></g></svg>