<?xml version="1.0" encoding="UTF-8" standalone="no"?><!DOCTYPE svg PUBLIC "-//W3C//DTD SVG 1.1//EN" "http://www.w3.org/Graphics/SVG/1.1/DTD/svg11.dtd"><svg width="100%" height="100%" viewBox="0 0 1551 537" version="1.1" xmlns="http://www.w3.org/2000/svg" xmlns:xlink="http://www.w3.org/1999/xlink" xml:space="preserve" xmlns:serif="http://www.serif.com/" style="fill-rule:evenodd;clip-rule:evenodd;stroke-linecap:round;stroke-linejoin:round;stroke-miterlimit:1.5;"><g id="RPC"><g id="Request"><path d="M650.189,415.103l0,-2.029l200.936,-0l0,-9.13l30.432,10.144l-30.432,10.144l0,-9.129l-200.936,-0Z"/><text x="701.697px" y="397.224px" style="font-family:'ArialMT', 'Arial', sans-serif;font-size:33.814px;">Request</text></g><g id="Response"><text x="689.116px" y="512.537px" style="font-family:'ArialMT', 'Arial', sans-serif;font-size:33.814px;">Response</text><path d="M881.557,477.174l0,2.029l-200.936,-0l0,9.13l-30.432,-10.144l30.432,-10.145l0,9.13l200.936,0Z"/></g><g id="Api-Gateway" serif:id="Api Gateway"><g id="Service"><path d="M1349.97,2.125l198.307,115.473l-0,230.947l-198.307,115.473l-198.308,-115.473l0,-230.947l198.308,-115.473Z" style="fill:#51dd4e;stroke:#24ad21;stroke-width:4.25px;"/><text x="1232.63px" y="258.236px" style="font-family:'ArialMT', 'Arial', sans-serif;font-size:70.311px;">Service</text></g><g id="Client"><path d="M200.419,2.125l198.294,115.478l-0,230.956l-198.294,115.479l-198.294,-115.479l-0,-230.956l198.294,-115.478Z" style="fill:#bef2f3;stroke:#2ed5d8;stroke-width:4.25px;"/><text x="114.028px" y="256.874px" style="font-family:'ArialMT', 'Arial', sans-serif;font-size:66.477px;">Client</text></g><g id="Shipping-Service" serif:id="Shipping Service"><g id="RPC-Server" serif:id="RPC Server"><rect x="881.557" y="358.309" width="175.831" height="175.831" style="fill:#bee77b;stroke:#74a91f;stroke-width:4.17px;stroke-linecap:butt;"/><g transform="matrix(1.0348,0,0,1.0348,-15.6961,-1708.68)"><text x="911.175px" y="2076.39px" style="font-family:'ArialMT', 'Arial', sans-serif;font-size:38.122px;">RPC</text><text x="873.379px" y="2115.75px" style="font-family:'ArialMT', 'Arial', sans-serif;font-size:38.122px;">SER<tspan x="951.076px 976.503px " y="2115.75px 2115.75px ">VE</tspan>R</text></g></g></g><g id="Interface"><path d="M472.617,409.299l-0.826,1.853l-133.154,-59.313l-3.714,8.339l-23.672,-21.649l31.927,3.117l-3.715,8.339l133.154,59.314Z"/><rect x="243.074" y="301.497" width="67.627" height="67.627" style="fill:#ededed;"/><path d="M310.701,301.497l-67.627,0l-0,67.628l67.627,-0l0,-67.628Zm-4.167,4.167l0,59.294c0,-0 -59.293,-0 -59.293,-0c-0,-0 -0,-59.294 -0,-59.294l59.293,0Z" style="fill:#bebebe;"/></g><g id="Interface1" serif:id="Interface"><path d="M1059.13,416.919l0.825,1.854l133.154,-59.314l3.715,8.34l23.671,-21.65l-31.926,3.117l3.714,8.34l-133.153,59.313Z"/><rect x="1221.05" y="309.118" width="67.627" height="67.627" style="fill:#ededed;"/><path d="M1221.05,309.118l67.628,-0l-0,67.627l-67.628,-0l0,-67.627Zm4.167,4.166l59.294,0c-0,0 -0,59.294 -0,59.294c-0,0 -59.294,0 -59.294,0l0,-59.294Z" style="fill:#bebebe;"/></g><g id="RPC-Proxy" serif:id="RPC Proxy"><rect x="472.754" y="358.304" width="175.831" height="175.831" style="fill:#bee77b;stroke:#74a91f;stroke-width:4.17px;stroke-linecap:butt;"/><g transform="matrix(1.23454,0,0,1.23454,-615.268,-2123.42)"><text x="917.687px" y="2076.39px" style="font-family:'ArialMT', 'Arial', sans-serif;font-size:31.954px;">RPC</text><text x="895.484px" y="2109.38px" style="font-family:'ArialMT', 'Arial', sans-serif;font-size:31.954px;">PROXY</text></g></g></g></g></svg>