<?xml version="1.0" encoding="UTF-8" standalone="no"?><!DOCTYPE svg PUBLIC "-//W3C//DTD SVG 1.1//EN" "http://www.w3.org/Graphics/SVG/1.1/DTD/svg11.dtd"><svg width="100%" height="100%" viewBox="0 0 2005 328" version="1.1" xmlns="http://www.w3.org/2000/svg" xmlns:xlink="http://www.w3.org/1999/xlink" xml:space="preserve" xmlns:serif="http://www.serif.com/" style="fill-rule:evenodd;clip-rule:evenodd;stroke-linejoin:round;stroke-miterlimit:1.5;"><g id="Synchronous-Communication-Problem" serif:id="Synchronous Communication Problem"><g id="Client"><rect x="2.083" y="75.619" width="350" height="150" style="fill:#ededed;stroke:#bebebe;stroke-width:4.17px;"/><text x="128.35px" y="164.041px" style="font-family:'ArialMT', 'Arial', sans-serif;font-size:37.5px;">Client</text></g><g id="Api-Gateway"><rect x="552.083" y="74.083" width="350" height="150" style="fill:#ededed;stroke:#bebebe;stroke-width:4.17px;"/><text x="616.817px" y="158.788px" style="font-family:'ArialMT', 'Arial', sans-serif;font-size:37.5px;">API-Gateway</text></g><g id="Request-Response" serif:id="Request Response"><path d="M352.083,120.168l0,-1.385l176.9,-0l-0,-6.236l20.784,6.928l-20.784,6.928l-0,-6.235l-176.9,0Z"/><path d="M552.083,177.998l0,1.386l-176.899,0l0,6.235l-20.784,-6.928l20.784,-6.928l0,6.235l176.899,0Z"/><text x="396.726px" y="106.751px" style="font-family:'ArialMT', 'Arial', sans-serif;font-size:29.167px;">Request</text><text x="385.874px" y="206.497px" style="font-family:'ArialMT', 'Arial', sans-serif;font-size:29.167px;">Response</text></g><g id="Service-1" serif:id="Service 1"><rect x="1102.08" y="74.083" width="350" height="150" style="fill:#ededed;stroke:#bebebe;stroke-width:4.17px;"/><text x="1201.53px" y="162.505px" style="font-family:'ArialMT', 'Arial', sans-serif;font-size:37.5px;">Service 1</text></g><g id="Request-Response1" serif:id="Request Response"><path d="M902.083,120.168l0,-1.385l176.9,-0l-0,-6.236l20.784,6.928l-20.784,6.928l-0,-6.235l-176.9,0Z"/><path d="M1102.08,177.998l0,1.386l-176.899,0l0,6.235l-20.784,-6.928l20.784,-6.928l0,6.235l176.899,0Z"/><text x="946.726px" y="106.751px" style="font-family:'ArialMT', 'Arial', sans-serif;font-size:29.167px;">Request</text><text x="935.874px" y="206.497px" style="font-family:'ArialMT', 'Arial', sans-serif;font-size:29.167px;">Response</text></g><g id="Api-Gateway1" serif:id="Api-Gateway"><rect x="1652.08" y="2.083" width="350" height="150" style="fill:#ededed;stroke:#bebebe;stroke-width:4.17px;"/><text x="1751.53px" y="90.505px" style="font-family:'ArialMT', 'Arial', sans-serif;font-size:37.5px;">Service 2</text></g><g id="Request-Response2" serif:id="Request Response"><path d="M1650.11,60.752l0.359,1.338l-175.815,47.11l1.614,6.023l-21.869,-1.313l18.283,-12.071l1.614,6.022l175.814,-47.109Z"/><g transform="matrix(0.965926,-0.258819,0.258819,0.965926,412.259,174.242)"><text x="1068.19px" y="168.487px" style="font-family:'ArialMT', 'Arial', sans-serif;font-size:29.167px;">Request</text></g><g transform="matrix(0.965926,-0.258819,0.258819,0.965926,394.883,180.567)"><text x="1083.52px" y="237.644px" style="font-family:'ArialMT', 'Arial', sans-serif;font-size:29.167px;">Response</text></g><path d="M1454.58,83.274l-0.358,-1.338l175.814,-47.109l-1.614,-6.023l21.869,1.312l-18.283,12.072l-1.613,-6.023l-175.815,47.109Z"/></g><g id="Api-Gateway2" serif:id="Api-Gateway"><rect x="1652.08" y="175.083" width="350" height="150" style="fill:#ededed;stroke:#bebebe;stroke-width:4.17px;"/><text x="1751.53px" y="263.505px" style="font-family:'ArialMT', 'Arial', sans-serif;font-size:37.5px;">Service 3</text></g><g id="Request-Response3" serif:id="Request Response"><path d="M1650.47,261.898l-0.359,1.338l-175.814,-47.109l-1.614,6.022l-18.283,-12.071l21.869,-1.312l-1.614,6.022l175.815,47.11Z"/><path d="M1454.22,183.926l0.358,-1.338l175.815,47.109l1.613,-6.023l18.283,12.071l-21.869,1.313l1.614,-6.023l-175.814,-47.109Z"/><g transform="matrix(0.965926,0.258819,-0.258819,0.965926,-317.97,-500.639)"><text x="1942.69px" y="189.145px" style="font-family:'ArialMT', 'Arial', sans-serif;font-size:29.167px;">Request</text></g><g transform="matrix(0.965926,0.258819,-0.258819,0.965926,-300.816,-491.859)"><text x="1917.92px" y="258.684px" style="font-family:'ArialMT', 'Arial', sans-serif;font-size:29.167px;">Response</text></g></g></g></svg>