<?xml version="1.0" encoding="UTF-8" standalone="no"?><!DOCTYPE svg PUBLIC "-//W3C//DTD SVG 1.1//EN" "http://www.w3.org/Graphics/SVG/1.1/DTD/svg11.dtd"><svg width="100%" height="100%" viewBox="0 0 2277 930" version="1.1" xmlns="http://www.w3.org/2000/svg" xmlns:xlink="http://www.w3.org/1999/xlink" xml:space="preserve" xmlns:serif="http://www.serif.com/" style="fill-rule:evenodd;clip-rule:evenodd;stroke-linejoin:round;stroke-miterlimit:1.5;"><g id="Comparison-Microservice-Monotlith" serif:id="Comparison Microservice Monotlith"><g id="Service-Description" serif:id="Service Description"><rect x="1890.97" y="2.125" width="383.613" height="474" style="fill:#e9e9e9;stroke:#bebebe;stroke-width:4.17px;"/><rect x="1919.97" y="248.125" width="80" height="80" style="fill:#e535ab;stroke:#84115e;stroke-width:4.25px;stroke-linecap:round;"/><rect x="1919.97" y="358.125" width="80" height="80" style="fill:#51dd4e;stroke:#24ad21;stroke-width:4.25px;stroke-linecap:round;"/><rect x="1919.97" y="138.125" width="80" height="80" style="fill:#ff5454;stroke:#ab0000;stroke-width:4.25px;stroke-linecap:round;"/><rect x="1919.97" y="28.125" width="80" height="80" style="fill:#ff9254;stroke:#f46700;stroke-width:4.17px;"/><text x="2029.64px" y="84.249px" style="font-family:'ArialMT', 'Arial', sans-serif;font-size:45.833px;">User</text><text x="2031.03px" y="194.54px" style="font-family:'ArialMT', 'Arial', sans-serif;font-size:45.833px;">Order</text><text x="2029.71px" y="299.706px" style="font-family:'ArialMT', 'Arial', sans-serif;font-size:45.833px;">Payment</text><text x="2029.71px" y="409.706px" style="font-family:'ArialMT', 'Arial', sans-serif;font-size:45.833px;">Shipping</text></g><g id="Monolith"><g id="Monolith1" serif:id="Monolith"><rect x="2.125" y="2.996" width="857.26" height="811.729" style="fill:#fff;stroke:#bebebe;stroke-width:4.25px;stroke-linecap:round;"/><rect x="65.973" y="452.153" width="317.857" height="305.986" style="fill:#e535ab;stroke:#84115e;stroke-width:4.25px;stroke-linecap:round;"/><rect x="477.679" y="452.153" width="317.857" height="305.986" style="fill:#51dd4e;stroke:#24ad21;stroke-width:4.25px;stroke-linecap:round;"/><rect x="477.679" y="59.581" width="317.857" height="305.986" style="fill:#ff5454;stroke:#ab0000;stroke-width:4.25px;stroke-linecap:round;"/><rect x="65.973" y="59.581" width="317.857" height="305.986" style="fill:#ff9254;stroke:#f46700;stroke-width:4.25px;stroke-linecap:round;"/></g><text x="295.289px" y="929.032px" style="font-family:'ArialMT', 'Arial', sans-serif;font-size:66.667px;">Monotlith</text></g><g id="Microservices"><g id="Microservices1" serif:id="Microservices"><rect x="957.935" y="2.125" width="400.66" height="385.338" style="fill:#fff;stroke:#bebebe;stroke-width:4.25px;stroke-linecap:round;"/><rect x="1402.95" y="2.125" width="400.66" height="385.338" style="fill:#fff;stroke:#bebebe;stroke-width:4.25px;stroke-linecap:round;"/><rect x="953.276" y="430.31" width="400.66" height="385.338" style="fill:#fff;stroke:#bebebe;stroke-width:4.25px;stroke-linecap:round;"/><rect x="1402.95" y="430.31" width="400.66" height="385.338" style="fill:#fff;stroke:#bebebe;stroke-width:4.25px;stroke-linecap:round;"/><path d="M1158.27,50.557l123.838,72.119l-0,144.236l-123.838,72.118l-123.838,-72.118l-0,-144.236l123.838,-72.119Z" style="fill:#ff9254;stroke:#f46700;stroke-width:4.17px;stroke-linecap:round;"/><path d="M1603.28,50.557l123.838,72.119l-0,144.236l-123.838,72.118l-123.838,-72.118l-0,-144.236l123.838,-72.119Z" style="fill:#ff5454;stroke:#ab0000;stroke-width:4.17px;stroke-linecap:round;"/><path d="M1603.28,478.743l123.838,72.118l-0,144.236l-123.838,72.118l-123.838,-72.118l-0,-144.236l123.838,-72.118Z" style="fill:#51dd4e;stroke:#24ad21;stroke-width:4.25px;stroke-linecap:round;"/><path d="M1153.61,478.743l123.838,72.118l-0,144.236l-123.838,72.118l-123.838,-72.118l0,-144.236l123.838,-72.118Z" style="fill:#e535ab;stroke:#84115e;stroke-width:4.25px;stroke-linecap:round;"/></g><text x="1189.71px" y="929.032px" style="font-family:'ArialMT', 'Arial', sans-serif;font-size:66.667px;">Microservices</text></g></g></svg>